<?xml version="1.0" encoding="UTF-8"?>
<svg id="Calque_2" data-name="Calque 2" xmlns="http://www.w3.org/2000/svg" xmlns:xlink="http://www.w3.org/1999/xlink" viewBox="0 0 519.95 241.01">
  <defs>
    <style>
      .cls-1 {
        clip-path: url(#clippath);
      }

      .cls-2 {
        fill: none;
      }

      .cls-2, .cls-3, .cls-4 {
        stroke-width: 0px;
      }

      .cls-4 {
        fill: #62a600;
      }
    </style>
    <clipPath id="clippath">
      <rect class="cls-2" x="13.26" y=".48" width="216.19" height="217.61" transform="translate(-.48 .54) rotate(-.25)"/>
    </clipPath>
  </defs>
  <g id="Calque_1-2" data-name="Calque 1">
    <g>
      <g>
        <g>
          <path class="cls-3" d="M263.59,44.87h12.81l9.8,60.18h-9.46l-1.72-11.95v.17h-10.75l-1.72,11.78h-8.77l9.8-60.18ZM273.9,85.1l-4.21-29.75h-.17l-4.13,29.75h8.51Z"/>
          <path class="cls-3" d="M290.23,90.78v-45.91h9.46v46.6c0,4.3,1.81,5.85,4.81,5.85s4.81-1.55,4.81-5.85v-46.6h9.11v45.91c0,9.63-4.81,15.13-14.1,15.13s-14.1-5.5-14.1-15.13Z"/>
          <path class="cls-3" d="M322.65,44.87h9.54l6.19,46.69h.17l6.19-46.69h8.68l-9.11,60.18h-12.55l-9.11-60.18Z"/>
          <path class="cls-3" d="M357.98,44.87h25.79v8.6h-16.34v15.91h12.98v8.6h-12.98v18.49h16.34v8.6h-25.79v-60.18Z"/>
          <path class="cls-3" d="M389.19,44.87h14.01c9.8,0,14.01,4.56,14.01,13.84v3.7c0,6.19-1.98,10.15-6.19,11.86v.17c4.73,1.46,6.28,5.93,6.28,12.72v10.58c0,2.92.09,5.07,1.03,7.31h-9.63c-.52-1.55-.86-2.49-.86-7.39v-11.01c0-5.59-1.63-7.39-5.93-7.39h-3.27v25.79h-9.46v-60.18ZM402.08,70.66c3.52,0,5.68-1.55,5.68-6.36v-4.64c0-4.3-1.46-6.19-4.81-6.19h-4.3v17.2h3.44Z"/>
          <path class="cls-3" d="M423.14,90.78v-31.64c0-9.63,4.81-15.13,14.1-15.13s14.1,5.5,14.1,15.13v5.16h-8.94v-5.76c0-4.3-1.89-5.93-4.9-5.93s-4.9,1.63-4.9,5.93v32.93c0,4.3,1.89,5.85,4.9,5.85s4.9-1.55,4.9-5.85v-11.78h-4.73v-8.6h13.67v19.69c0,9.63-4.81,15.13-14.1,15.13s-14.1-5.5-14.1-15.13Z"/>
          <path class="cls-3" d="M457.44,44.87h11.86l9.2,36.02h.17v-36.02h8.43v60.18h-9.72l-11.35-43.94h-.17v43.94h-8.43v-60.18Z"/>
          <path class="cls-3" d="M494.15,44.87h25.79v8.6h-16.34v15.91h12.98v8.6h-12.98v18.49h16.34v8.6h-25.79v-60.18Z"/>
        </g>
        <g>
          <path class="cls-3" d="M253.78,114.12h35.02v11.67h-22.18v21.6h17.63v11.67h-17.63v25.1h22.18v11.67h-35.02v-81.72Z"/>
          <path class="cls-3" d="M296.16,114.12h16.11l12.49,48.91h.23v-48.91h11.44v81.72h-13.19l-15.41-59.65h-.23v59.65h-11.44v-81.72Z"/>
          <path class="cls-3" d="M346,114.12h35.02v11.67h-22.18v21.6h17.63v11.67h-17.63v25.1h22.18v11.67h-35.02v-81.72Z"/>
          <path class="cls-3" d="M388.37,114.12h19.03c13.31,0,19.03,6.19,19.03,18.79v5.02c0,8.41-2.69,13.78-8.41,16.11v.23c6.42,1.98,8.52,8.05,8.52,17.28v14.36c0,3.97.12,6.89,1.4,9.92h-13.07c-.7-2.1-1.17-3.39-1.17-10.04v-14.94c0-7.59-2.22-10.04-8.05-10.04h-4.44v35.02h-12.84v-81.72ZM405.88,149.14c4.79,0,7.71-2.1,7.71-8.64v-6.3c0-5.84-1.99-8.41-6.54-8.41h-5.84v23.35h4.67Z"/>
          <path class="cls-3" d="M434.48,176.46v-42.96c0-13.08,6.54-20.55,19.15-20.55s19.14,7.47,19.14,20.55v7h-12.14v-7.82c0-5.84-2.57-8.05-6.65-8.05s-6.65,2.22-6.65,8.05v44.71c0,5.84,2.57,7.94,6.65,7.94s6.65-2.1,6.65-7.94v-15.99h-6.42v-11.67h18.56v26.73c0,13.08-6.54,20.55-19.14,20.55s-19.15-7.47-19.15-20.55Z"/>
          <path class="cls-3" d="M491.09,161.05l-15.53-46.93h13.66l8.76,30h.23l8.76-30h12.49l-15.53,46.93v34.79h-12.84v-34.79Z"/>
        </g>
      </g>
      <g>
        <g class="cls-1">
          <g>
            <polygon class="cls-4" points="81.35 36.62 84.65 42.83 86.19 42.01 83.15 36.33 81.35 36.62"/>
            <path class="cls-4" d="M88.59,33.58l2.6-.43.17,1.09-2.6.43-.17-1.09ZM88.34,32.03l2.6-.43.17,1.09-2.6.43-.17-1.09ZM88.08,30.47l2.6-.43.17,1.09-2.6.43-.17-1.09ZM85.56,35.19l-.17-1.09,2.6-.43.17,1.09-2.6.43ZM85.13,32.56l2.6-.43.17,1.09-2.6.43-.17-1.09ZM84.88,30.99l2.6-.43.17,1.09-2.6.43-.17-1.09ZM82.36,35.71l-.17-1.09,2.6-.43.17,1.09-2.6.43ZM81.93,33.06l2.6-.43.17,1.09-2.6.43-.17-1.09ZM81.68,31.52l2.6-.43.17,1.09-2.6.43-.17-1.09ZM79.16,36.24l-.17-1.09,2.6-.43.17,1.09-2.6.43ZM78.73,33.58l2.6-.43.17,1.09-2.6.43-.17-1.09ZM78.48,32.04l2.6-.43.17,1.09-2.6.43-.17-1.09ZM75.96,36.76l-.17-1.09,2.6-.43.17,1.09-2.6.43ZM75.53,34.11l2.6-.43.17,1.09-2.6.43-.17-1.09ZM75.28,32.56l2.6-.43.17,1.09-2.6.43-.17-1.09ZM72.76,37.28l-.17-1.09,2.6-.43.17,1.09-2.6.43ZM72.33,34.63l2.6-.43.17,1.09-2.6.43-.17-1.09ZM72.08,33.07l2.6-.43.17,1.09-2.6.43-.17-1.09ZM71.83,31.52l2.6-.43.17,1.09-2.6.43-.17-1.09ZM71.58,29.98l2.6-.43.17,1.09-2.6.43s-.17-1.09-.17-1.09ZM71.33,28.42l2.6-.43.17,1.09-2.6.43-.17-1.09ZM71.07,26.87l2.6-.43.17,1.09-2.6.43-.17-1.09ZM76.87,25.92l.17,1.09-2.6.43-.17-1.09,2.6-.43ZM77.32,28.58l-2.6.43-.17-1.09,2.6-.43.17,1.09ZM77.57,30.12l-2.6.43-.17-1.09,2.6-.43.17,1.09ZM80.07,25.4l.17,1.09-2.6.43-.17-1.09,2.6-.43ZM77.82,31.68l-2.6.43-.17-1.09,2.6-.43.17,1.09ZM80.52,28.05l-2.6.43-.17-1.09,2.6-.43.17,1.09ZM80.75,29.62l-2.6.43-.17-1.09,2.6-.43.17,1.09ZM83.27,24.9l.17,1.09-2.6.43-.17-1.09,2.6-.43ZM81,31.16l-2.6.43-.17-1.09,2.6-.43.17,1.09ZM83.7,27.53l-2.6.43-.17-1.09,2.6-.43.17,1.09ZM83.95,29.09l-2.6.43-.17-1.09,2.6-.43.17,1.09ZM86.47,24.37l.17,1.09-2.6.43-.17-1.09,2.6-.43ZM84.2,30.64l-2.6.43-.17-1.09,2.6-.43s.17,1.09.17,1.09ZM86.9,27.03l-2.6.43-.17-1.09,2.6-.43.17,1.09ZM87.15,28.57l-2.6.43-.17-1.09,2.6-.43.17,1.09ZM89.67,23.85l.17,1.09-2.6.43-.17-1.09,2.6-.43ZM87.4,30.12l-2.6.43-.17-1.09,2.6-.43.17,1.09ZM90.1,26.5l-2.6.43-.17-1.09,2.6-.43.17,1.09ZM90.35,28.05l-2.6.43-.17-1.09,2.6-.43.17,1.09ZM90.6,29.61l-2.6.43-.17-1.09,2.6-.43.17,1.09ZM89.97,23.38l-19.34,3.14,1.82,11.24,19.34-3.14-1.82-11.24Z"/>
            <polygon class="cls-4" points="64.1 47.53 67.61 52.55 68.85 51.68 65.62 47.09 64.1 47.53"/>
            <path class="cls-4" d="M70.04,44.15l2.2-.63.27.92-2.2.63-.27-.92ZM69.66,42.84l2.2-.63.27.92-2.2.63-.27-.92ZM67.6,45.86l-.27-.92,2.2-.63.27.92-2.2.63ZM66.95,43.62l2.2-.63.27.92-2.2.63-.27-.92ZM64.89,46.64l-.27-.92,2.2-.63.27.92-2.2.63ZM64.24,44.41l2.2-.63.27.92-2.2.63-.27-.92ZM62.18,47.43l-.27-.92,2.2-.63.27.92-2.2.63ZM61.53,45.19l2.2-.63.27.92-2.2.63-.27-.92ZM59.47,48.21l-.27-.92,2.2-.63.27.92-2.2.63ZM58.82,45.97l2.2-.63.27.92-2.2.63-.27-.92ZM56.76,49l-.27-.92,2.2-.63.27.92-2.2.63ZM56.11,46.74l2.2-.63.27.92-2.2.63-.27-.92ZM55.73,45.44l2.2-.63.27.92-2.2.63-.27-.92ZM55.34,44.12l2.2-.63.27.92-2.2.63-.27-.92ZM54.98,42.81l2.2-.63.27.92-2.2.63-.27-.92ZM54.6,41.49l2.2-.63.27.92-2.2.63-.27-.92ZM54.21,40.17l2.2-.63.27.92-2.2.63-.27-.92ZM59.12,38.76l.27.92-2.2.63-.27-.92,2.2-.63ZM59.78,41l-2.2.63-.27-.92,2.2-.63.27.92ZM61.83,37.97l.27.92-2.2.63-.27-.92,2.2-.63ZM62.49,40.23l-2.2.63-.27-.92,2.2-.63.27.92ZM64.54,37.19l.27.92-2.2.63-.27-.92,2.2-.63ZM65.19,39.45l-2.2.63-.27-.92,2.2-.63.27.92ZM67.25,36.4l.27.92-2.2.63-.27-.92,2.2-.63ZM67.9,38.66l-2.2.63-.27-.92,2.2-.63.27.92ZM69.96,35.64l.27.92-2.2.63-.27-.92,2.2-.63ZM70.61,37.88l-2.2.63-.27-.92,2.2-.63.27.92ZM70.98,39.19l-2.2.63-.27-.92,2.2-.63.27.92ZM68.77,41.67l.27.92-2.2.63-.27-.92,2.2-.63ZM66.18,40.99l2.2-.63.27.92-2.2.63-.27-.92ZM66.06,42.46l.27.92-2.2.63-.27-.92,2.2-.63ZM65.8,39.67l2.2-.63.27.92-2.2.63-.27-.92ZM63.47,41.77l2.2-.63.27.92-2.2.63-.27-.92ZM63.35,43.24l.27.92-2.2.63-.27-.92,2.2-.63ZM63.09,40.45l2.2-.63.27.92-2.2.63-.27-.92ZM60.76,42.56l2.2-.63.27.92-2.2.63-.27-.92ZM60.64,44.01l.27.92-2.2.63-.27-.92,2.2-.63ZM60.38,41.24l2.2-.63.27.92-2.2.63-.27-.92ZM57.96,42.96l-.27-.92,2.2-.63.27.92-2.2.63ZM60.25,42.71l.27.92-2.2.63-.27-.92,2.2-.63ZM71.36,40.49l-2.2.63-.27-.92,2.2-.63.27.92ZM71.74,41.81l-2.2.63-.27-.92,2.2-.63.27.92ZM70.17,35.18l-16.37,4.73,2.76,9.52,16.37-4.73-2.76-9.52Z"/>
            <polygon class="cls-4" points="98.96 14.63 100.03 38.39 102.53 38.02 105.02 37.63 98.96 14.63"/>
            <path class="cls-4" d="M100.41,15.06c0,.38-.13.7-.39.98-.26.26-.6.4-.98.4s-.7-.13-.98-.39c-.26-.26-.4-.6-.4-.98s.13-.7.39-.98c.26-.26.6-.4.98-.4s.7.13.98.39c.26.26.4.6.4.98Z"/>
            <path class="cls-4" d="M100.08,16.68l2.57,4.92c.42.81.99,1.54,1.67,2.16l3.33,2.98c.26.24.68-.08.51-.4l-2.05-3.97c-.42-.81-.99-1.56-1.67-2.16l-4.1-3.73s-.08.08-.13.11c-.04.04-.09.06-.13.09l.02-.02Z"/>
            <path class="cls-4" d="M84.69,17.32l4.47.21c.92.05,1.83-.08,2.71-.35l5.29-1.68c-.02-.11-.04-.23-.04-.32l-5.54-.24c-.92-.03-1.83.08-2.71.37l-4.25,1.38c-.34.11-.28.62.08.64Z"/>
            <path class="cls-4" d="M99.91,13.35l2.97-4.69c.49-.77.84-1.62,1.02-2.53l.92-4.38c.07-.36-.4-.54-.59-.24l-2.41,3.76c-.51.77-.86,1.62-1.04,2.53l-1.18,5.43c.09.04.21.07.3.13v-.02Z"/>
            <polygon class="cls-4" points="118.13 17.75 116.15 37.24 118.22 37.23 120.31 37.22 118.13 17.75"/>
            <path class="cls-4" d="M119.28,18.1c0,.32-.11.58-.34.81s-.49.34-.81.34-.58-.11-.81-.34-.34-.49-.34-.81.11-.58.34-.81.49-.34.81-.34.58.11.81.34.34.49.34.81Z"/>
            <path class="cls-4" d="M118.8,19.56l1.51,4.33c.25.71.63,1.37,1.1,1.95l2.35,2.83c.19.23.57.02.47-.27l-1.18-3.48c-.25-.71-.61-1.37-1.1-1.97l-2.9-3.53s-.08.06-.11.08-.08.04-.13.06Z"/>
            <path class="cls-4" d="M106.19,18.22l3.6.72c.74.15,1.51.16,2.24.03l4.52-.74v-.26s-4.49-.87-4.49-.87c-.74-.15-1.51-.14-2.24-.03l-3.63.62c-.3.06-.3.47,0,.53Z"/>
            <path class="cls-4" d="M119.07,16.82l2.98-3.46c.49-.57.88-1.23,1.14-1.93l1.28-3.45c.11-.28-.27-.49-.45-.26l-2.42,2.76c-.51.57-.88,1.23-1.16,1.93l-1.62,4.28s.15.09.23.13h.02Z"/>
            <polygon class="cls-4" points="219.3 112.95 199.75 111.55 199.84 113.62 199.9 115.7 219.3 112.95"/>
            <path class="cls-4" d="M220.07,112.95c0,.32-.11.58-.34.81s-.49.34-.81.34-.58-.11-.81-.34-.34-.49-.34-.81.11-.58.34-.81.49-.34.81-.34.58.11.81.34.34.49.34.81Z"/>
            <path class="cls-4" d="M217.51,113.66l-4.27,1.64c-.71.27-1.35.67-1.92,1.16l-2.76,2.44c-.23.19,0,.57.27.45l3.44-1.3c.71-.27,1.35-.67,1.94-1.16l3.45-3.01s-.06-.08-.08-.11-.04-.08-.06-.11h-.02Z"/>
            <path class="cls-4" d="M218.47,101.01l-.61,3.62c-.13.75-.11,1.51.03,2.24l.89,4.48h.26s.71-4.51.71-4.51c.11-.75.11-1.51-.05-2.24l-.73-3.61c-.06-.3-.47-.28-.53,0l.02.02Z"/>
            <path class="cls-4" d="M220.24,113.84l3.55,2.89c.59.47,1.25.84,1.96,1.08l3.49,1.17c.28.09.49-.27.26-.45l-2.84-2.34c-.59-.49-1.25-.84-1.96-1.1l-4.32-1.49s-.07.17-.13.25h-.02Z"/>
            <path class="cls-4" d="M136.69,30.16s.61-2.47.88-4.53c.51-.28.88-.72,1.03-1.27h0c.1.19.21.36.34.51-.84,1.68-1.96,4.04-2.26,5.29ZM147.17,19.09c-.11-.04-.23-.06-.34-.07,0-.06.02-.09.04-.15.56-2.17-.64-4.37-2.68-4.89-1.32-.33-2.67.11-3.59,1.05-.38-.54-.95-.94-1.63-1.12-1.15-.3-2.34.16-3.08,1.09-.36-.38-.81-.66-1.36-.79-1.6-.41-3.28.66-3.72,2.37-.19.75-.13,1.51.16,2.15-.64.29-1.13.8-1.29,1.46-.33,1.3.71,2.69,2.31,3.12.15.04.32.07.47.09.08,1.07,1.08,2.12,2.5,2.49.3.07.6.11.89.13v.23s-.6,4.28-.97,5.34c-.37,1.04-2.48,5.98-3.23,6.63l5.32,1.37s-.27-5.5.21-7.2c.35-1.23,1.47-4.42,2.49-6.81.25.17.53.28.83.35,1.68.43,3.41-.67,3.87-2.47.04-.15.06-.28.07-.43.4.36.91.64,1.47.78,1.6.41,3.18-.32,3.52-1.62.33-1.3-.71-2.69-2.31-3.12l.06.02Z"/>
            <path class="cls-4" d="M204.36,91.45s2.37-.93,4.21-1.88c.53.26,1.09.32,1.62.11h0c-.09.19-.17.38-.22.57-1.86.27-4.44.74-5.61,1.21ZM219.46,93.66c-.04-.11-.1-.23-.13-.32.04,0,.09-.04.13-.06,2.11-.8,3.21-3.03,2.46-5-.48-1.28-1.63-2.12-2.93-2.34.22-.62.22-1.32,0-1.96-.42-1.11-1.48-1.82-2.66-1.89.09-.51.07-1.06-.12-1.56-.59-1.56-2.42-2.31-4.08-1.68-.71.27-1.3.76-1.67,1.36-.6-.36-1.3-.47-1.92-.22-1.26.48-1.8,2.12-1.21,3.68.06.15.13.3.19.43-.84.68-1.12,2.1-.61,3.47.11.28.25.56.4.79l-.19.13s-3.85,1.98-4.93,2.26c-1.05.31-6.32,1.42-7.29,1.16l1.94,5.13s4.34-3.39,6.01-3.96c1.2-.42,4.46-1.34,7-1.88,0,.3.08.6.19.88.61,1.62,2.52,2.4,4.25,1.75.13-.06.26-.11.39-.17-.05.53,0,1.09.21,1.66.59,1.56,2.08,2.42,3.34,1.94s1.8-2.12,1.21-3.68v.06Z"/>
            <path class="cls-4" d="M38.44,68.48s-2.1-1.42-3.93-2.41c-.1-.58-.36-1.09-.82-1.41h0c.21-.02.4-.08.6-.13,1.29,1.37,3.1,3.25,4.18,3.96h-.04ZM31.73,54.8c-.07.09-.13.19-.19.3-.04-.04-.08-.06-.11-.09-1.85-1.29-4.32-.92-5.52.8-.79,1.12-.84,2.53-.27,3.75-.64.17-1.22.55-1.62,1.14-.67.98-.67,2.26-.06,3.28-.47.21-.9.53-1.22.99-.95,1.36-.53,3.3.92,4.31.64.45,1.36.63,2.06.61.04.7.36,1.34.91,1.71,1.1.77,2.77.29,3.73-1.07.09-.13.17-.26.24-.42,1.04.32,2.37-.27,3.22-1.47.17-.25.32-.53.43-.79l.23.07s3.82,2.07,4.65,2.77c.85.71,4.75,4.41,5.07,5.35l3.15-4.52s-5.25-1.67-6.68-2.72c-1.02-.75-3.63-2.92-5.5-4.7.24-.19.45-.4.64-.66.99-1.42.55-3.43-.96-4.48-.11-.09-.25-.15-.38-.22.47-.25.9-.63,1.26-1.12.95-1.36.82-3.09-.28-3.86-1.12-.77-2.77-.29-3.73,1.07l.02-.02Z"/>
            <path class="cls-4" d="M148.29,33.48c.11-.04.24-.08.36-.13h0c-.13.32-.09.68.06,1.02-.6,1.15-1.19,2.62-1.19,2.62.3-.74.59-2.36.78-3.51ZM143.9,28.3c-.3.79.23,1.73,1.22,2.1.36.13.72.19,1.04.15-.04.08-.07.17-.11.25-.41,1.08.07,2.28,1.07,2.67.19.07.38.11.57.13-.33,1.58-.93,3.62-1.21,4.38-.37,1.04-2.51,3.74-2.51,3.74l3.21,1.23c-.15-.6.57-3.88.75-4.54.19-.66,1.44-3.08,1.44-3.08l.09-.11c.15.09.32.19.49.26.85.34,1.75.16,2.18-.37.09.06.17.09.28.13.96.37,2,.05,2.31-.75.15-.4.09-.83-.14-1.21.38-.23.68-.59.86-1.04.41-1.04-.07-2.19-1.03-2.56-.32-.13-.66-.15-.98-.09-.04-.73-.48-1.41-1.18-1.67-.42-.15-.83-.15-1.22-.01-.14-.83-.67-1.54-1.46-1.84-1.23-.47-2.64.2-3.14,1.52,0,.04-.02.06-.04.09-.06-.04-.13-.06-.21-.09-.98-.37-2-.05-2.31.75l.02-.04Z"/>
            <path class="cls-4" d="M199.91,74.42c.15.06.32.11.47.15h0c-.39.23-.66.62-.75,1.1-1.56.69-3.36,1.73-3.36,1.73.9-.51,2.52-1.93,3.64-2.97ZM199.61,65.51c-.96.55-1.16,1.96-.48,3.13.25.43.59.75.95.99-.11.04-.21.1-.32.15-1.3.78-1.78,2.38-1.06,3.6.13.23.28.41.47.58-1.65,1.35-3.91,2.96-4.79,3.51-1.22.78-5.63,1.81-5.63,1.81l2.28,3.87c.34-.74,3.73-3.52,4.48-4.05.73-.53,3.97-1.98,3.97-1.98l.19-.06c.08.23.17.45.3.68.61,1.03,1.67,1.59,2.53,1.4.06.11.11.24.17.36.68,1.17,2.02,1.67,2.96,1.12.47-.28.77-.78.84-1.34.57.07,1.17-.04,1.71-.37,1.26-.74,1.7-2.29,1.02-3.47-.23-.39-.55-.68-.93-.88.56-.79.65-1.83.16-2.68-.28-.49-.74-.84-1.25-1.01.52-.94.57-2.11,0-3.07-.87-1.48-2.87-1.93-4.45-1-.04.02-.08.04-.09.06-.04-.09-.08-.17-.13-.26-.68-1.17-2.02-1.67-2.96-1.12l.04.02Z"/>
            <path class="cls-4" d="M47.45,53.45c.02-.17.02-.34,0-.51h0c.32.32.77.47,1.26.45,1.08,1.31,2.56,2.78,2.56,2.78-.74-.75-2.53-1.91-3.84-2.73l.02.02ZM38.95,56.1c.79.77,2.21.59,3.14-.39.34-.36.58-.76.69-1.17.08.09.15.17.25.26,1.1,1.05,2.77,1.08,3.75.06.17-.19.32-.4.43-.6,1.74,1.22,3.88,2.98,4.65,3.69,1.06.97,3.24,4.94,3.24,4.94l3.13-3.24c-.81-.13-4.38-2.67-5.1-3.24-.7-.56-2.95-3.3-2.95-3.3l-.09-.17c.21-.13.39-.28.56-.47.84-.87,1.08-2.02.68-2.81.09-.08.21-.17.3-.27.96-.98,1.06-2.4.29-3.17-.4-.38-.94-.52-1.53-.46-.08-.56-.36-1.13-.82-1.56-1.04-1.01-2.66-1.04-3.62-.06-.32.32-.51.72-.6,1.13-.91-.34-1.94-.14-2.62.56-.39.42-.62.93-.65,1.47-1.06-.26-2.19,0-2.97.8-1.2,1.23-1.1,3.28.23,4.56.04.02.06.06.09.07-.08.06-.15.13-.21.19-.94.98-1.06,2.4-.29,3.15v.02Z"/>
            <path class="cls-4" d="M21.51,126.42c-.08-.11-.17-.23-.28-.32h0c.38,0,.73-.15,1.03-.44,1.41.2,3.17.27,3.17.27-.87-.03-2.66.26-3.92.51v-.02ZM17.79,132.9c.92.01,1.69-.89,1.72-2.02,0-.41-.08-.79-.23-1.13.09,0,.19.02.3.02,1.26.03,2.33-.91,2.35-2.1,0-.21-.02-.41-.08-.62,1.77-.23,4.09-.38,4.97-.38,1.22,0,4.81,1.2,4.81,1.2l.1-3.77c-.56.38-4.24.85-4.99.91-.75.04-3.71-.36-3.71-.36l-.15-.04c.06-.19.07-.4.09-.6.03-1-.48-1.86-1.18-2.12,0-.11.02-.23.04-.34.03-1.15-.71-2.09-1.63-2.1-.47,0-.88.21-1.2.59-.38-.3-.85-.49-1.4-.5-1.22-.03-2.24.88-2.25,2.01,0,.38.1.73.27,1.04-.75.32-1.28,1-1.29,1.83,0,.47.15.92.44,1.28-.81.44-1.35,1.25-1.37,2.19-.03,1.45,1.18,2.65,2.72,2.68h.09c0,.07,0,.15,0,.24-.03,1.15.71,2.09,1.63,2.1h-.06Z"/>
            <path class="cls-4" d="M194.33,47.95l2.21-2.04,2.04,2.21-2.21,2.04-2.04-2.21ZM193.43,52.89l-2.04-2.21,2.21-2.04,2.04,2.21-2.21,2.04ZM193.32,58.68l-2.04-2.21,2.21-2.04,2.04,2.21-2.21,2.04ZM188.45,53.4l2.21-2.04,2.04,2.21-2.21,2.04-2.04-2.21ZM187.55,58.34l-2.04-2.21,2.21-2.04,2.04,2.21-2.21,2.04ZM187.45,64.13l-2.04-2.21,2.21-2.04,2.04,2.21-2.21,2.04ZM184.5,66.86l-2.04-2.21,2.21-2.04,2.04,2.21-2.21,2.04ZM181.56,69.58l-2.04-2.21,2.21-2.04,2.04,2.21-2.21,2.04ZM175.89,63.46l-2.04-2.21,2.21-2.04,2.04,2.21-2.21,2.04ZM181.83,59.54l2.04,2.21-2.21,2.04-2.04-2.21,2.21-2.04ZM184.78,56.81l2.04,2.21-2.21,2.04-2.04-2.21s2.21-2.04,2.21-2.04ZM181.94,53.77l2.04,2.21-2.21,2.04-2.04-2.21,2.21-2.04ZM190.76,45.58l2.04,2.21-2.21,2.04-2.04-2.21,2.21-2.04ZM193.7,42.85l2.04,2.21-2.21,2.04-2.04-2.21,2.21-2.04ZM193.88,40.79l-23.44,21.71,9.62,10.36,23.44-21.71-9.62-10.36Z"/>
            <path class="cls-4" d="M186.97,28.24l2.32-3.14,3.14,2.32-2.32,3.14s-3.14-2.32-3.14-2.32ZM187,34.74l-3.14-2.32,2.32-3.14,3.14,2.32-2.32,3.14ZM180.8,43.08l-3.14-2.32,2.32-3.14,3.14,2.32-2.32,3.14ZM177.69,47.25l-3.14-2.32,2.32-3.14,3.14,2.32-2.32,3.14ZM174.58,51.41l-3.14-2.32,2.32-3.14,3.14,2.32-2.32,3.14ZM170.22,41.69l2.32-3.14,3.14,2.32-2.32,3.14-3.14-2.32ZM165.89,38.47l2.32-3.14,3.14,2.32-2.32,3.14-3.14-2.32ZM165.92,44.97l-3.14-2.32,2.32-3.14,3.14,2.32-2.32,3.14ZM162.81,49.13l-3.14-2.32,2.32-3.14,3.14,2.32-2.32,3.14ZM174.43,27l3.14,2.32-2.32,3.14-3.14-2.32s2.32-3.14,2.32-3.14ZM178.79,36.72l-2.32,3.14-3.14-2.32,2.32-3.14,3.14,2.32ZM177.54,22.82l3.14,2.32-2.32,3.14-3.14-2.32,2.32-3.14ZM184.99,28.38l-2.32,3.14-3.14-2.32,2.32-3.14s3.14,2.32,3.14,2.32ZM184.98,21.88l3.14,2.32-2.32,3.14-3.14-2.32,2.32-3.14ZM180.37,15.97l-24.72,33.23,14.69,10.94,24.72-33.23s-14.69-10.94-14.69-10.94Z"/>
            <path class="cls-4" d="M115.33,36.43c-11.47.05-22.6,2.34-33.05,6.84-5.02,2.15-9.87,4.81-14.4,7.9-4.49,3.05-8.69,6.58-12.54,10.44-3.83,3.86-7.29,8.12-10.32,12.63-3.05,4.55-5.67,9.43-7.77,14.47-4.38,10.49-6.59,21.64-6.54,33.11s2.34,22.6,6.84,33.05c2.15,5.02,4.81,9.87,7.9,14.4,3.05,4.49,6.58,8.69,10.44,12.54,3.86,3.83,8.12,7.29,12.63,10.32,4.55,3.05,9.43,5.67,14.47,7.77,10.49,4.38,21.64,6.59,33.11,6.54s22.6-2.34,33.05-6.84c5.02-2.15,9.87-4.81,14.4-7.9,4.49-3.05,8.69-6.58,12.54-10.44,3.83-3.86,7.29-8.12,10.32-12.63,3.05-4.55,5.67-9.43,7.77-14.47,4.38-10.49,6.59-21.64,6.54-33.11-.05-11.47-2.34-22.6-6.84-33.05-2.15-5.02-4.81-9.87-7.9-14.4-3.05-4.49-6.58-8.69-10.44-12.54-3.86-3.83-8.12-7.29-12.63-10.32-4.55-3.05-9.43-5.67-14.47-7.77-10.49-4.38-21.64-6.59-33.11-6.54ZM115.34,37.24c46.5-.21,84.35,37.31,84.55,83.8.21,46.5-37.31,84.35-83.8,84.55S31.74,168.29,31.54,121.8,68.84,37.45,115.34,37.24"/>
            <path class="cls-4" d="M130.35,146.68c-1.03-3.74-4.36-2.39-4.4-2.39-.02-.26-.06-.62-.1-.89-.47-.13-1.13-.24-1.62-.31-.11-.23-.28-.53-.4-.75.15-.47.32-1.13.41-1.62-1.44-1.27-.69-3.58-2.26-4.79-1.76-1.35-3.98-.81-5.9-1.46-.75-.24-4.09-3.79-5.89-5.76.15-.11.38-.36.38-.36.13-.13.24-.36.24-.53,0-.15,0-.51-.53-.54-.08,0-.21,0-.24.06v.02c-.04.09-.04.21-.07.28-.04.09-.11.17-.17.26v.04s0,.08,0,.15v.19c-.45-.53-.76-.86-.76-.88-1.79-.2-3.59,1.35-5.35-.07-.47.08-1.09.21-1.56.35-.7-1.13-1.08-1.3-1.97-1.5-.11-.26-.25-.6-.36-.85-.66.44-1.07,1.14-1.73,1.57-.04-.24-.08-.56-.12-.79.3-.36.56-1,.54-1.47-.77.06-3.5.66-6.61,5.78-.26,0-.58-.04-.85-.05-.89-1.03-.93-1.05-2.08-1.31-.45.4-1.05.91-1.5,1.29-5.36-.97-1.99-7.51-4.25-10.76-1.34-.18-2.65.41-3.99.15-.63-1.62,1.01-5.98,1.74-7.77-.1-.21-.23-.49-.32-.7-1.11-.08-2.73,1.36-4.86,4.32-.47-.13-1.36-.39-2.86.67-.27-.38-.81-.77-1.25-.86-4.87-9.91,1.49-16.08,3.45-15.92,1.23.11,2.25,1.18,3.6.76.22-.47.54-1.08.8-1.53.51-.02,1.54-.08,3.39.17.11.23.25.53.36.77.43-.04,1.04-.27,1.37-.55.3.41.76.92,1.14,1.26-.21,3.05,1.15,4.89,1.97,5.7,1.33-1.68,1.22-2.13.26-5.67-1.38-5.16,3.77-7.2,5.39-7.71,0-.26.02-.6.03-.85.45-.19,1.02-.53,1.41-.85-.2-.45-.49-1.74-.87-3.88.25.39.44,1,.48,1.47.38-.28.81-.76,1.05-1.17-.08-.24-.17-.58-.23-.85.23.04.53.09.75.13.15.02,1.44-.99,3.87-3.03.43.11,1.06.16,1.51.14-.58-1.17-.85-1.96-.8-2.39.07-.64,5.08-2.49,6.24-2.67-.38.36-.88.81-1.28,1.15,0,.28-.02.64-.03.92.25.06.57.15.81.2,1.86-1.35,4.23-1.75,6.01-3.25-.32-.34-.94-.6-1.42-.63-1.19,2.49-3.82.15-3.84.11-.15-.17-.17-.51-.25-.71.17-.19.41-.44.58-.62-.25-.06-.57-.11-.81-.17.39-.28.86-.72,1.16-1.08-.17-.19-.4-.43-.57-.62-1.11-.03-2.51.05-4.78,1.51,3.92-4.03,10.05-1.7,14.22-4.96,0-.49.01-1.15.09-1.64-.55-.13-1.28-.33-1.83-.52-.1-.23-.19-.55-.29-.79-3.09-.83-3.88-4.03-6.04-5.83-1.41,1.48-2.72,1.98-3.93,1.52-.38-1.02-.4-1.32.29-2.15-.49,0-1.15.06-1.62.14-.34-.39-.78-.94-1.08-1.35-2.05-.12-4.07.06-4.09.06-.11.47-.5,1.04-.86,1.34.17.21.38.47.55.68-.28.43-.77.95-1.2,1.21.91,1.15,1.16,1.67.8,2.54l-4.4,6.07c-.31-.87-.52-1.47-.63-1.92l.3.17h.04c.09.04.23,0,.3-.13.13-.28-.11-.43-.74-.47-.13-.64-.08-1.07.07-2.02-2.47-.61-4.5-2.79-7.34-2.17.02-.51.11-1.17.22-1.68-.23-.04-.53-.07-.75-.09.1-.43,2.7-2.37,7.79-5.82-.19-.15-.43-.34-.62-.49.49-.12,1.13-.29,1.6-.42.11-.21.24-.47.35-.68h.75c.17.17.38.41.55.58.75-.7,1.88-.74,2.59-1.52-.08-.23-.17-.51-.25-.73.24-.06.56-.15.81-.21-.08-.23-.17-.55-.25-.77-.47-.11-1.09-.24-1.57-.33-.64.89-1.61,1.4-2.4,2.12-.23-.04-.55-.09-.77-.15.26-.38.49-1,.48-1.45l-.75.19c-1.84-1.74-1.27-2.03,1.81-3.61-.4-.28-1.02-.49-1.51-.5-1.9.54-3.68,3.09-3.75,3.18.21.11.47.26.68.35-.13.21-.28.47-.41.68.23-.04.53-.08.75-.12-.54.55-1.3.82-1.88,1.31-.13-.21-.3-.47-.42-.68.41-.21.9-.61,1.18-.97-.96-.17-1.09-.18-2.3.31-.02.23-.05.53-.09.75-1.07.55-2.15,0-3.2.05-.11-.21-.27-.49-.38-.7-.45.1-1.04.23-1.47.35-.28.45-.67,1.06-.97,1.47.06-.23.11-.55.17-.77-.39-.1-1.26-.09-2.6.01.11-.21.28-.47.39-.68-1.16-.53-1.83-.9-2-1.08-.47.02-1.09.21-1.51.46.11-.21.26-.47.39-.66-.21.13-.47.3-.66.42,0-.24,0-.57.02-.79-1.47.61-3.18.45-4.57,1.36-.11-.21-.27-.47-.38-.66-.35-.07-1.06-.38-2.11-.93-1.88,1-7.61,6.21-17.19,15.64,2.61-2.08,5.03-4.36,7.56-6.51-.56.59-1.16,1.1-1.73,1.68,1.27-.66,1.98-1.02,2.14-1.08.24-.1.06-.15.06-.17.36.28.85.6,1.25.82.19-.13.45-.3.66-.44-.96,1.04-.89,2.45-1.36,3.66.43-.45.96-1.1,1.31-1.61l-.19-.19.24-.51-.04.26.19.13.66-.91-.36.64-1.12,1.57c.38-.28.81-.76,1.07-1.15-.47,1-1.39,1.61-2,2.48.17-.17.41-.38.58-.53-.28.42-.64.98-.88,1.42.43-.19.92-.68,1.11-1.1-.37,1.85-1.04,3.64-1.33,5.51-.19.13-.45.3-.66.44-.07.96-.09,1.06.52,2.3.23.07.51.17.74.24.05-.49.07-1.17,0-1.68.7.98.59,1.3.07,2.03-.24,0-.57,0-.79.02-5.91,9.13-4.87,14.27-4.43,16.45,0,.13-.02.15-.04.19,0,.04-.02.08-.04.11,0,.06-.02.09-.04.15l-.04.15s-.04.11-.04.15c0,.06-.02.09-.04.15,0,.04-.02.08-.04.11,0,.04,0,.06-.02.09,1.7.37,2.4.52,2.46,10.11.42.35.92.98,1.52,1.88-.33,1.11-.11,2.04.67,2.8,1.17,1.14,0,.04,0,.08v.08s0,.04,0,.06v.06s0,.04,0,.04v.04s0,0,0,.02h0c.13.19.32.43.45.6.24-.02.56-.06.79-.08-1.73-7.58-2.57-11.55-2.52-11.91.23.04.51.11.74.15.49.56.49.6.49.62v.09s0,.08-.02.09c0,.04,0,.08-.02.11,0,.04,0,.08-.02.11,0,.04,0,.08-.02.13,0,.04,0,.09-.02.13,0,.04,0,.09-.02.13,0,1.31-.03,2.09-.12,2.36,1.53,1.48,1.09,3.99,2.77,5.39.04.51.1,1.56,1.79,3.53,0,.06.25,5.48,1.73,6.68,3.25,2.6,15.71,7.33,15.75,7.32-.06.23-.13.53-.19.75.97,1.41,4.26,5.6,4.26,5.61.02.24.06.56.08.81,1.02.79,2.42.91,3.32,1.87.23-.08.55-.19.77-.27-.08-.33.1-1.07.52-2.23,2.41.54,2.26,8.94,2.19,9.01-.17.15-.51.21-.73.3-.15.45-.28,1.11-.29,1.58-.32.25-.73.59-1.03.85.03,1.56-.46,3.09-.26,4.65.23.11.53.24.77.34-2.3,8.54,12.33,19.93,12.49,20.05.19.15.84,2.82,2.56,24.37,0,.23.1.53.15.77.17-.42.26-1.02.22-1.47.29.46.52,1.21.69,2.24-.19-.17-.44-.41-.61-.58.04.65.04,1.45.01,2.39.23,0,.53-.02.75-.04-.09.21-.22.49-.32.7.02.06,2.25,5.06,6.63,4.23-1.06-.67-1.76-1.11-2.12-1.31-.36-1.37.89-2.36.89-3.66-.23-.04-.55-.09-.77-.11-.11-.23-.25-.51-.36-.71.92-1.01,1.13-2.22.62-3.64.49,0,1.13-.04,1.6-.06.15-.45.33-1.06.46-1.51,2.85-1.07,4.01-2.2,3.49-3.39,5.26-4.51,8.33-11.47,15.54-13.82.55-7.07,7.39-11.09,8.68-17.82.24-1.43.18-2.37.1-3.3l-9.74-3.63-.24.13Z"/>
            <polygon class="cls-4" points="58.85 62.16 58.83 62.16 58.83 62.16 58.85 62.16"/>
            <path class="cls-4" d="M78.24,143.33c-.21-.15-.43,0-.64-.09-.15-.07-.19-.24-.36-.32h-.06c-.08,0-.11.06-.09.26,0,.15.02.26.27.55.09.11.11.13.11.19.02.13-.06.26-.09.32-.15.25-.17.42-.15.49,0,.02,0,.06.02.08.11.19.53-.08.64-.17.11-.09.21-.38.21-.38.02-.08-.04-.13,0-.19.02,0,.04,0,.23.07.53.22.68.22.7.17.06-.09-.72-.94-.78-.98Z"/>
            <path class="cls-4" d="M79.72,144.13c-.11,0-.21,0-.3.11-.11.11-.17.19-.11.26s.21.17.28.13c.04,0,.06-.02.11-.08.25-.23.38-.35.38-.36,0-.02-.17-.07-.36-.07Z"/>
            <path class="cls-4" d="M78.53,144.61s-.08,0-.09.09c-.02.08-.04.15-.06.23,0,.04-.04.08-.06.11v.08c.08.08.3.07.4.07.04,0,.04-.02.04-.08,0-.13-.11-.43-.11-.43,0,0-.06-.04-.13-.06l.02-.02Z"/>
            <path class="cls-4" d="M94.27,113.57c.19,0,.49-.12.56-.29,0,0,.32-.68-1.64-.92-.02-.19.22-.4.02-.58-.08-.06-.21-.06-.3-.06-.17,0-.51-.04-.96-.33-.6-.39-.91-1.09-1.55-1.42l-3.28-1c-.6-.17-.72-.2-1.07-.2-2.47.24-3.21,2.18-3.21,2.2.08.08.09.07.51-.02.19-.06.4,0,.58-.12.17-.09.04-.32.19-.43.21-.17.51-.1.7-.27,1.26-1.15,1.49-.4,1.51-.33.04.15-.23.23-.13.4.02.04.34.32.57.39.28.09.7-.3.89.07.3.64,1.02.45,1.49.73.19.11.3.3.47.41.17-.11.19-.11.28-.1.28.34.17.9.65,1.11.38.17.77-.63,1.02-.19.27.47-.77.51-.56,1,.08.15.4.24.42.24.34,0,.55-.3.88-.34.68-.08,1.34.11,2,.05Z"/>
            <path class="cls-4" d="M84.81,111.4c.25.32.79.15.85-.25.04-.21-.1-.49-.45-.51-.45.02-.62.47-.39.76Z"/>
            <path class="cls-4" d="M92.19,116.12c-.43-.3-1.13-.43-1.49-.46-.85.04-.69.61-.69.61.06.13.78.71.96.77.15.04.32,0,.45,0,.23-.04.36-.06.41-.06h.38c.11-.02.17-.04.21-.13,0,0,.09-.49-.25-.7l.02-.02Z"/>
            <path class="cls-4" d="M94.98,116.18h1.3c.21,0,.4-.05.6-.03.21,0,.34.24.42.39.44.81.53.66.87.11.21-.32.43-.53.53-.57.21-.08.21.24.4.24.41-.04.7-.42,1.11-.48.45-.06.58.19.62.3.06.11.15.15.36.09.17-.04.53-.25.66-.53.15-.32.3-.68-3.25-2.13-.1-.04-.18-.06-.23-.07-.36-.02-.49.4-.83.4-.17,0-.3-.11-.36-.19-.3-.26-.6-.3-.87-.3-.77.02-.77.19-.77.25,0,.04,0,.09.04.11.13.26.51.26.64.52.11.23-.17.36-.15.57,0,.06.08.11.23.23,0,0,.81.6-.17.53-.68-.06-1.02-.09-1.04-.09-.26-.07-.44-.45-.79-.28-.04.21.14.77.64.88l.04.04Z"/>
            <path class="cls-4" d="M103.03,116.43c.32.51,1.79.33,1.88-.22,0-.06.07-.6-1.04-.62-1.24.04-.84.83-.83.83h-.02Z"/>
            <path class="cls-4" d="M91.25,107.53c-.04-.15-.23-.13-.28-.28v-.23c.02-.4-.12-.87-.12-.88s0-.06-.02-.08c-.02-.08-.08-.17-.19-.19-.04,0-.08,0-.11.06-.07.09-.07.23-.15.32s-.21.13-.28.23c0,.02-.04.08-.04.23,0,0,0,.13.08.24.09.13.23.21.32.32.17.21.21.38.19.58,0,.08,0,.15.02.21.11.23.49-.21.56-.45v-.09s.02.02.02.02Z"/>
            <path class="cls-4" d="M96.21,111.92s-.1-.19-.43-.21c-.36,0-.49.15-.41.25.13.19.79.17.85-.04Z"/>
            <path class="cls-4" d="M90.46,103.26c-.28.02-.6.4-.39.57.34.26.58-.19.88-.17.45.02.47.45.49.75,0,.15,0,.36.12.49.13.19.32,0,.38-.36.16-1.07-1.46-1.29-1.48-1.29v.02Z"/>
            <path class="cls-4" d="M110.14,118.55l-.04.04c-.13.15-.24.19-.3.19,0,.08,0,.09-.09.09-.32,0-.43.51-.36.6.06.09.4.11.53,0,.28-.27.32-.79.32-.79,0-.08,0-.09-.02-.09l-.04-.04Z"/>
            <path class="cls-4" d="M110.26,120.5c.02-.28-.17-.64-.29-.66,0,0-.02,0-.02.06v.34h0v.04c0,.13.1.24.11.28.08.09.17.13.19-.04v-.02Z"/>
            <path class="cls-4" d="M110.31,121.56l.04.04s.09.07.15.11c.04.04.06.08.09.11h.06s.06-.09.06-.13v-.04c0-.08,0-.17,0-.24,0-.06.04-.11.04-.15,0-.21-.11-.23-.19-.23-.19,0-.24,0-.28.08,0,.04-.07.34,0,.45h.04Z"/>
            <path class="cls-4" d="M110.78,122.14l-.47.57s0,.08.13.24c.08.09.11.07.15,0,0,0,.17-.28.19-.3,0-.04.06-.13.07-.28,0-.09,0-.23-.06-.24l-.02.02Z"/>
            <path class="cls-4" d="M110.62,123.52c0-.11-.06-.19-.17-.21-.34.02-.36.53-.24.68.11.13.41-.28.41-.47Z"/>
            <path class="cls-4" d="M109.98,125.42s.04-.57-.15-.58c-.17,0-.45.19-.3.38.13.17.44.37.45.21Z"/>
            <path class="cls-4" d="M112.12,123.51s0,.09-.04.21c-.04.15-.06.28,0,.34.04.04.08,0,.11.04.06,0,.09.04.15.06h.04s.06,0,.09,0c.09-.04.19-.19.21-.32,0-.09-.04-.4-.3-.41-.06,0-.15,0-.28.1h.02Z"/>
            <path class="cls-4" d="M108.05,76.75s-.11-.04-.13-.04c-.36.08-.26.53-.26.53,0,.04.08.09.19.13.06.02.49.22.83.26.06,0,.11,0,.17.04.21.07.28.34.53.36.13,0,.19-.06.23-.08.04-.04.02-.09.06-.15.06-.09.17-.13.23-.23,0-.02.02-.06.04-.08,0-.06.06-.26-.08-.26-.26-.02-.47.19-.71.21-.23,0-1.15-.3-.93-.54.04-.06.08-.08-.11-.15h-.04Z"/>
            <path class="cls-4" d="M110,73.76c-.28-.07-.36-.09-.55-.2-.09-.06-.15-.13-.23-.19-.02,0-.06-.02-.09-.04l-1.36-.14s-.13,0-.13.09c0,.08.08.13.11.15.04.02.09.06.15.06.34.07.6.22.74.3.21.11.32.32.53.43.02,0,.06.02.08.04.43.13,1.21-.04,1.26-.1.21-.17-.17-.3-.51-.39Z"/>
            <path class="cls-4" d="M119.33,75.96h-.04c.07-.26.51-.42.34-.75-.41-.07-.56.34-.86.46.45-.51.64-.7.62-.81-.04-.32-.43-.19-.53-.41-.08-.17.11-.32,0-.49-.04-.06-.27-.28-.32-.34-.3-.28-.61-.56-1.07-.05-.19.21-.87.08-.92,0,.17-.62.02-.68-.08-.72,0,0-.09-.02-.34.17-.3.23-.36.25-.41.27-.02-.09.37-.74.47-.87.56-.79.64-.93.69-1.25-.06-.08-.12-.11-.17-.11-.66.12-1.41.74-1.41.76,0,0-.09.11-.26.34-.3.42-.45.91-.77,1.3-.37.45-.92.76-1.16,1.32,0,0,.02,0,.04.02.51-.25.45.19.45.21-.04.19-.21.26-.43.4-.64.32-.58.64-.58.64h2.51s.11-.01.17-.01c.26,0,.49-.17.73-.17.28,0,.4.39.7.34.2-.04.38-.18.54-.44.24-.38.02,0,.04,0,.17.55-.68.49-.77.93-.04.13.51.43,1.22-.31.17-.17.66-.34.77-.25.26.21-.22.43-.22.7.17.06.3-.15.47-.04.17.13,0,.32.12.47s.92-.19,1.01-1.23c.05-.6-.08-.51-.51-.11l-.02.04Z"/>
            <path class="cls-4" d="M53.71,66.23c.23-.13.34-.4.53-.57.23-.19.49-.34.71-.53,0,0,.02,0,.02-.02.15-.15.22-.36.37-.49.06-.06.11-.06.13-.08.08-.02.13-.04.28-.19.13-.13.13-.17.13-.19,0-.04,0-.06.04-.11.02-.06.06-.09.09-.13v-.02h0s-.06.02-.23.17c-.34.28-.64.61-.98.87-.15.11-.32.19-.45.32l-.04.04c-.13.13-.19.32-.3.47-.07.09-.15.15-.21.21-.26.23-.26.28-.26.3.06,0,.09-.06.15-.08h0v.06c0,.06,0,0,0,0v-.04Z"/>
            <path class="cls-4" d="M58.98,68.69c-.11.06-.32.17-.49-.24-.17.04-.66.7-.81,1.15-.04.09-.07.26-.11.58-.11,1.04-.09,1.07-.07,1.09l.17-.23c.19-.28.17-.62.28-.92.32-.92.71-1.21,1.03-1.44Z"/>
            <path class="cls-4" d="M76.99,52.28c-.11.15.23.13.23.13.26-.04.49-.21.73-.29.15-.04.3,0,.45-.06.04,0,.08-.02.09-.04.26-.1.45-.32.7-.44.21-.1.41-.15.6-.25.04-.02.09-.06.15-.08.09-.06.21-.11.3-.17.19-.11.47-.27,2.33-.75.02,0,.04-.02.08-.04-.36-.32-.3-.45-.27-.58-.04-.02-.09-.07-.85.19-.13.04-.17.06-.23.06-.17,0-.21-.13-.15-.21.11-.17-.08-.21-.08-.21h-.08s-1.17.12-1.17.12c-.24.11-.22.45-.47.57-.39.17-2.22,1.23-2.5,1.46l.47.13c.06.24-.22.28-.34.43h-.02Z"/>
            <path class="cls-4" d="M86.14,51.77s.04-.09.04-.15c.05-.36.15-.57.58-.85.47-.3.71-.46.66-.68-.04-.15-.1-.16-.19-.02-.79.02-.83.23-.85.29,0,.09-.06.21-.19.26-.57-.32-.96.12-1.07.25-.17.21-.09.53-.28.74,0,0-.34.25-.53.17-.02-.13-.02-.15.2-.64.19-.42.04-.53-.49-.34.02.4-.75.46-.79.46.25-.15.39-.25.41-.3-.15-.11-.36-.11-.47-.28-.36.04-.6.38-.96.44,0,0-.02-.02-.04-.04.17-.11.38-.17.49-.36.17-.26-.21-.21-.23-.21-.43.1-1.45.4-2.24.69-.17.42-.68.34-.92.64v.08c.09,0,.14,0,.15,0,.02,0-.11.09-.13.17.34-.04.66-.25,1.02-.19,0,0,.04.04.04.06-.06.13-.17.15-.24.15-.09,0-1.13.16-1.17.38.36.38.7.28,1.07.18,0,0,1.3-.33,1.28.2-.11.08-.47.1-.51.06-.25-.17-2.37.05-2.45.56,0,0,.04.02.04.04,0,.08-.02.13-.04.21.32.32.75,0,1.09.2,0,.11-.13.15-.17.25.27.81,2.24.07,2.34-.01.09-.06.17-.09.23-.11.23-.08.43.04.66.02.43-.02.56-.59,1.01-.59.3,0,.24.11-.19.34-.64.34.02.02.04.04,0,0,.47.09.58.15,0,.04,0,.09.02.13,0,0,1.04.33,1.92-.29-.49-.11-.7-.24-.6-.41.13,0,.25.13.4.07.28-.13.45-.17.51-.13.02.15-.13.25-.13.4.13.04.34-.02.34-.02,0,0,.52-.61.51-.76-.06-.24-.36-.05-.53-.15-.11-.06-.13-.09-.26-.26-.09,0-.17.13-.3.08-.04-.15-.21-.21-.27-.36.19-.06.51-.44.58-.51l.02-.02Z"/>
            <path class="cls-4" d="M96.1,59l.85-.31s-.08-.51-.64-.32q-.24.08-.26.02c-.04-.17.21-.38,0-.51s-.47-.09-.7-.2c-.15-.09-.19-.3-.34-.39-.02,0-.04-.02-.06-.04-.06-.02-.21-.07-.32,0-.04,0-.28,0-.34-.11h.04c.11-.06.15-.47,0-.51l-.56.12c-.23.19-.32.47-.49.7-.11.15-.28.25-.39.4-.13.19-.09.49-.34.62-.24.11-.57-.04-.75.25-.04.06-.04.17.08.19.08,0,.23-.04.47-.1.13-.04.38-.11.41-.04.13.19-.07.3-.11.47-.02.13.06.15.11.15,0,0,1.37-.35,1.67-.7,0,0,.26-.3.41-.32l.77.51c.25.19.51.17.53.17l-.04-.04Z"/>
            <path class="cls-4" d="M94.05,59.5s-.49.49-.45.68c.08.32,1.47-.33,1.66-.65.04-.06.09-.17-.64-.19-.11,0-.4,0-.56.15Z"/>
            <path class="cls-4" d="M96.96,59.92c-.24,0-.43.11-.43.11-.11.09-.41.44-.36.6.06.13.3.21.47.15.06-.02.32-.3.43-.55.13-.3-.04-.3-.11-.3v-.02Z"/>
            <path class="cls-4" d="M98.06,58.97s.02.02.06.06c.06.04.08.06.09.07.06.06.06.13.11.19.04.04.08.06.11.07.13.04.26-.13.3-.21.11-.21-.49-.32-.57-.34-.08.08-.13.11-.13.15h.02Z"/>
            <path class="cls-4" d="M99.17,58.7c-.11,0-.17.17-.15.23.02.04.26.17.38.17s.17-.13.21-.25c0-.04.02-.08-.08-.09-.08-.02-.21-.04-.36-.04v-.02Z"/>
            <path class="cls-4" d="M94.4,52.26c.24-.02.49-.13.72-.06v.11c-.24.06-.49-.02-.73-.03l.02-.02ZM110.06,57.56c.19-.23.09-.58.37-.76.25.11.42.17.49.17.19-.26.32-.41.41-.44.13-.32.56-.17.71-.47-.04-.21-.42-.6-.66-.51-.19.08-.41-.04-.66-.34-.19,0-.38.13-.57.02-.01-.1-.19-.2-.53-.3-.51-.15,0-.08,0-.09l-1.85-.61h-.57s-.04,0-.13,0c0-.02,0-.08-.02-.09.41-.27.96-.1,1.35-.44-.19-.41-.64-.13-.91-.34-.18-.14.02-.2.58-.19s.24-.09-.96-.3c-1.81-.31-.06-.08-.08-.09,0-.04.02-.08.04-.09.11-.03.23-.08.36-.17.19-.13,0-.08,0-.11-.51-.15-1.03.31-1.55-.09,0-.08.02-.17.06-.23-.02,0-.06-.02-.09-.04-.32.23-.39.27-.53.13.06-.04.15-.09.21-.13v-.11c-.36-.38-.68-.3-1.43-.11-.02-.02-.06-.04-.08-.08.02-.06.02-.13,0-.19-.19-.04-.3-.07-.32-.09-.04-.04.15-.11.17-.19.01-.05-.19-.06-.62-.03.16-.14.24-.26.24-.38-1.56-.12-1.66-.07-2.35.29-.08.04-.17.04-.24.04-.4-.47-.83.27-1.26.25.09-.26.43-.32.49-.59.04-.18-.05-.33-.25-.45.06-.11.15-.21.21-.32,0-.02-.04-.06-.04-.09-.6,0-1.49,0-2.73.54-.36.15-.24.36-.05.7-.06.04-.13.08-.21.06-.08,0-.21-.04-.24.08-.02.08.05.22.23.43.27.32-.11.15-.17.19-.15-.04-.32-.37-.49-1,.36-.51,1.11-.34,1.45-.85-.13-.09-.21-.13-.62-.15-2.28.05-3.29,1.75-3.34,1.97.11.15.23.23.36.24-.11,0-.21.04-.3.11.02.21.27.32.23.56.34.15.92-.4,1.06.07.06.02.15.04.21.04h.87c.28-.02.55-.12.83-.1.3,0,.51.34.85.26.38-.1.64.19.98.26,0,0,.81-.02,1.22-.27,0-.17.02-.21-.27-.49.38,0,.7.32,1.09.22q-.19.17-.26.32s.04.06.04.08c0,.01.16-.01.49-.08.49-.1.06.04.09.06.02.11.06.28.55.43-.51.04-.55.06-.71.21v.38c.43-.02.72-.57,1.21-.33-.56.32-1.26.21-1.82.57-.3.19-.15.74-.09.79.11.11.94.11.94.11.24,0,.88-.98.9-.98.22-.4.71-.27.73-.27.11.23.4.19.53.36,0,0,.23.41.34.77-.47.68-1.35.59-1.94,1.08.24.24.38.38.44.43.08.08,0,.06,0,.09-.9.15-2.17.35-2.62.07-.13-.07-.23-.1-.32-.07-.02.11,0,.23-.06.34-.6.25-.68.36-.73.47.06.24.74.58.85.6.49.05.83-.38,1.28-.42.28-.04.51.19.79.18,0-.02.02-.06.04-.08.32,0,.45.07,1.49.82v.23c.64.46,1.08.68,1.32.65.36-.04,0-.15,0-.21.21-.11.38.07.4.09.3.38,2.68.93,2.96.68,0-.34-.25-.43-.47-.54l-1.49-1.1c.19-.1,1.36.5,1.38.5,0,.04,0,.09.02.13.15.41.6.07.91.17.34.09.29.58.64.66.13.04.28-.08.43-.3-.17-.13-.38-.17-.55-.28v-.11c.21-.1.31-.21.3-.32.17-.19.43-.13.64-.23,0-.04.04-.09.04-.13-.14-.21-.44-.39-.89-.52-.1-.39-.29-.58-.57-.58-.51,0-.78-.66-.78-.66-.58.19-.77-.34-.77-.34.24-.15.55.04.77-.15-.04-.08-.13-.18-.27-.3.75.03,1.7.75,1.7.75,0,0,.93.5,1.19.62v.04Z"/>
            <path class="cls-4" d="M50.01,69.02c-.22.28-.24.3-.26.32,0,0,.02-.04.04-.06-.02.02-.04.06-.06.08l-.32.4-.04.06s.24-.28.71-.87c0,0,.11-.13.13-.17,0,0-.07.09-.21.26v-.02Z"/>
            <path class="cls-4" d="M56.27,62s-.79.78-.84.87c0,0,.04,0,.34-.34.39-.4.51-.53.51-.53Z"/>
            <path class="cls-4" d="M115.45,197.46h-.11s-.04,0-.04,0c-.04,0-.17,0-.28.04-.08.02-.11.09-.17.11,0,0-.04,0-.08-.06-.04-.08-.08-.11-.26-.11-.34,0-.48.08-.41.25.04.09.08.17.06.19h-.09s-.09-.02-.13-.04c-.28-.02-.07.26.21.3.17.02.26-.17.41-.15.06,0,.08,0,.11.06.04.04,0,.09,0,.15.04.09.25.07.3.06.08-.04.11-.08.15-.17,0-.04.02-.09.06-.11.09-.11.26-.06.4-.13l.08-.08c.04-.08,0-.19-.17-.23l-.02-.08Z"/>
            <path class="cls-4" d="M91.22,49.92c-.36.06-.72.17-1.07.23-.21.02-.38-.05-.43-.09q-.06-.06-.15-.04s-.86.44-.9.51c.11.06.25.06.34.15.11.09-.15.34-.36.36-.06,0-.17,0-.19-.15,0-.06-.04-.19-.13-.19-.17,0-.81.32-.69.55,0,0,0,.02.02.04.16.16.43.26.79.3.34.04-.05.55.25.68.09.04.34-.13.55-.3.17-.15.45-.36.79-.08.21-.17.36-.34.38-.34.36-.36.39-.53.41-.64.04-.17,0-.19-.15-.09-.06.04-.08.04-.09.04-.01-.09-.09-.13-.23-.11.83-.39,1.13-.66.9-.8l-.02-.02Z"/>
            <path class="cls-4" d="M82.4,48.58c.11-.04.13-.04.17-.04.06.09-.09.17-.04.25,0,0,.49-.12,1.18-.46.41-.21.64-.32.71-.32-.28.23-.42.37-.43.42-.02.08.04.04.04.06.06,0,1.07-.36,1.07-.36l.73-.61-.26-.09s-.13,0-.32.06c-.17.04-.36.08-.43.04-.11-.06-.41.08-.98.32-.43.19-.9.21-1.35.36-.38.13-.62.4-.62.47.04.02.09.04.51-.12l.02.02Z"/>
            <path class="cls-4" d="M83.06,49.24h.6s-.04.09-.04.15c.06,0,.08,0,.34-.08.24-.08.53-.17.56-.13.26.26-.53.21-.62.53l.58.19h.04c.7-.06,1.26-.5,1.96-.56.26,0,.51.13.79.07.4-.08,1.45-.67,1.45-.67.17-.11.19-.15.19-.19-.38-.32-.75.14-1.13,0-.1-.21.22-.26.17-.45h-.04s-.88.27-.88.27c-.08.05-.06.17.04.36-.07.17-.45.27-.66.21-.28-.07-.49-.41-.57-.54-.21-.39-2.52.33-2.78.88v-.04Z"/>
            <path class="cls-4" d="M86.8,47.39h.24s.04,0,.04,0c-.02.09-.11.17-.13.26,0,.06.04.06.08.06,0,0,.88-.15.92-.15.17-.06.26-.26.47-.3h.19c.09-.04.13-.13.21-.19.06-.04.13-.04.19-.08.11-.06.21-.13.32-.19.08-.04,0-.13.02-.19h-.06s-1.45.21-1.45.21c0,0-.17.09-.51.34-.11.09-.13.09-.15.09h0c-.08-.3-.53-.04-.55-.04-.21.19,0,.21.19.21l-.02-.04Z"/>
            <path class="cls-4" d="M90.33,47.62s.04-.02.02-.04c-.02-.04-.08-.04-.11-.06-.08-.06-.1-.21-.1-.28h-.02c-.11,0-.21.21-.22.25,0,.04-.02.08-.04.09h0v.04c-.06.17.47,0,.49,0h-.02Z"/>
            <path class="cls-4" d="M88.98,49.17h.02s.04-.04.06-.09v-.09s0-.04,0-.06h-.02c-.09,0-.6.21-.62.32,0,.09.34.11.55-.04l.02-.04Z"/>
            <path class="cls-4" d="M90.91,47.11c.13,0,.56-.12.75-.17.13-.04.15-.04.08,0s-.05.1.08.19c0,.11.06.13.08.15.08,0,.19-.06.36-.15.21-.11.28-.15.32-.13,0,.11-.11.17-.15.26-.09.23.72,0,.77-.04.09-.04.09-.08.09-.09,0-.08-.09-.09-.11-.15,0-.04.04-.09.09-.17.15-.19.19-.25.19-.26v-.04c-.11-.07-.23.15-.32.04.06-.32-.47,0-.66-.15,0,0,0-.04.02-.04v-.04c-.08-.02-.17-.07-.72-.13-.23.04-.53.25-.62.3h.3s.11,0,.17,0c.28.02.3.24-.15.25-.28,0-.47.04-.56.12-.08.08-.07.25,0,.26Z"/>
            <path class="cls-4" d="M89.77,48.68s-.04.23.1.26c.15.04.9-.06.92-.06.08,0,.12,0,.13,0,.02,0-.02,0-.04.02-.08.04-.43.27-.45.36,0,0,.3.13.58.11.08,0,.41-.06.83-.21.17-.06.23-.23.36-.32.06-.06.13-.11.21-.17.04-.02.08-.06.09-.09.19-.19.49-.49.43-.57,0,0-.08-.02-.09-.04-.04,0-.09,0-.58.04-.26.02-.28-.02-.26-.09,0-.06,0-.08-.06-.08h-.11c-.23.04-.41.17-.62.23-.23.08-.28.02-.32,0t-.08,0s-.09.06-.17.17c-.06.08-.02.19-.09.26-.08.08-.15.06-.17.04-.04-.04-.04-.08-.04-.08.06-.17-.23-.51-.47-.45-.28.08-.47.4-.41.45.09.07.26.04.32.19v.02Z"/>
            <path class="cls-4" d="M94.33,45.85h.11c.06,0,.04.04,0,.07,0,0-.02.04-.02.06,0,.04.09.04.19-.04,0,0,.02-.02.04-.04.23-.21.15-.21.04-.21-.21,0-.47.08-.49.08,0,0-.08.04-.08.08,0,.02.04.02.19,0h.02Z"/>
            <path class="cls-4" d="M94.07,47.34s.13-.06.19-.08c.19-.04.4,0,.58-.06.13-.04.43-.25.51-.3.02-.02.06-.06.07-.09-.04-.04-.08-.08-.4-.07-.19,0-.45,0-.74-.17-.06,0-.19.04-.28.17-.04.08-.07.13-.07.19s.06.08.09.11c.06.08-.11.09-.13.15-.02.08.08.15.17.13v.02Z"/>
            <path class="cls-4" d="M94.17,47.49h.98c.32,0,.55-.12.6-.14,0,0,.04-.02.06-.04h0c-.13,0-.24.04-.36.06-.08,0-.09,0-.09-.02-.04-.06-.21-.06-.38-.05-.19,0-.28,0-.32.02,0,0-.53.15-.55.15h0s.02.04.08.06h.04s-.06-.04-.06-.04Z"/>
            <path class="cls-4" d="M94.59,49.55c.58.09,1.15-.14,1.73-.12v.06c-.07.08-.12.14-.13.19-.02.08,2.26.2,3.11-.18.08.08.08.21.21.23h1.41s.69-.61.71-.61c.43-.55-1.58-.52-2.17-.46-.28.04-.55-.07-.83-.03-.34.06-.6.3-.96.31h-.09c-.21-.04-.38-.19-.59-.22-.19-.04-.36.1-.55.02,0-.02-.02-.06-.02-.08.09-.17.34-.23.39-.44-.15-.02-.28,0-.43-.05-.06-.17-.06-.21-.74-.07-.51.1-.51.08-.55-.26-.08-.06-.11-.07-.41-.09-.04,0-1.13.04-1.43.21.11.23.42.26.51.51.04.13-.21.32-.21.32-.34.27-.83-.2-1.15.23,0,.04.02.08.04.09-.06.13-.21.17-.28.27-.05.06.01.06.19,0,.41-.04,1.04.13,1.06.13.14.05.31-.03.53-.25.32-.32.07-.19,0-.47-.13-.58.81-.44.81-.44.33.06.2.33-.37.81.11.05.16.11.13.19-.04.11-.04.19.04.19l.04.04Z"/>
            <path class="cls-4" d="M99.56,44.83c-.13.08-.28.11-.41.17.04.32.32.34.62.36h.7s.06,0,.15.05v.11c1,.01,2-.2,3-.16-.53.45-1.15.16-1.73.29-.39.09-.3.14.26.15.85.02.02.08.04.09-.15.04-.24.04-.47-.05-.83-.39-1.53-.09-1.62.16.21.06.43.04.64.11-.3.91-1.49-.03-1.84.82.27.41.7-.04,1.05-.02.05.09-.02.25-.22.47.17.07.62-.02,1.02-.12-.56.51-1.3.42-1.6.18.02-.08.06-.15.09-.21-.77-.03-1.02.1-1.17.17.11.11.28.15.4.28-.47.17-1.34-.18-1.43.52.06.04.13.09.19.09h.85c1.02.05,2.03-.37,3.07-.11,0,.06.04.13.06.19.32.09,1.62.05,2.07-.42,0-.02-.04-.06-.06-.09-.17-.04-.36,0-.53-.07l1.05-.63s.28-.02.62,0c.41,0,1.39-.46,1.39-.46.07-.29.19-.46.34-.51.23-.08.19-.04.26-.04.59,0,1.47-.2,2.65-.6.77-.27,1.62-.27,2.39-.54.6-.21,1.28-.23,1.84-.55,0-.02-.02-.06,0-.08-.6-.24-2.16-.4-4.66-.51l-9,.7s-.77.15-.92.36c.32,0,.6-.23.92-.08l-.02-.02Z"/>
            <path class="cls-4" d="M96.66,47.78c.09-.06.19-.1.28-.13.08-.02.15-.02.21-.06h0s0-.13-.06-.17-.13-.06-.23-.06c-.28,0-.36.02-.41.21,0,0-.09.3,0,.3.04,0,.11-.04.19-.1h.02Z"/>
            <path class="cls-4" d="M95.73,46.26c.66-.04,1.22,0,1.28.07-.21.02-.41-.04-.62,0-.08.02-.24.13-.3.25-.06.11.04.23.04.23.08.08.19.06.26.11.06.04.06.11.09.15,0,0,.02,0,.04.02.02,0,.06.02.17,0,.21,0,.43-.06.64-.1.19-.02.38.05.57,0,.38-.1.7-.3,1.05-.44.38-.13.79-.15,1.17-.29.06-.02.15-.06.21-.08.02,0,.06-.04.08-.06-.21-.13-.47.12-.68-.07,0-.11.11-.17.11-.28q0-.08-.11-.07v-.04c.05-.06.07-.11.07-.15-.36-.22-.58.23-.9.17v-.02c.04-.08.13-.09.15-.19-.17-.02-.34.04-.49-.07-.13-.09-.19-.26-.36-.34-.21-.09-.47-.13-.6-.13l-.66.21c-.23.1-.39.28-.6.38-.13.06-.28,0-.4.08-.08.06-.24.17-.17.32.05.1,0,.19-.13.28-.21.13.04,0,.09,0v.06Z"/>
            <path class="cls-4" d="M102.89,50.68c-.08-.13-.68-.49-.74-.51s-.25-.07-.55-.02c-.47.1-.96-.05-1.07-.09-.13,0-.32.04-.32.21,0,.19.11.26.21.3.06.02.08.06.09.09.01.03.02.11.02.26s.11.15.23.15c.09,0,.26-.08.34-.1.3-.11.7-.25,1.07-.25.11,0,.24,0,.28.02.17.02.36.04.41-.02v-.04s.02-.02.02-.02Z"/>
            <path class="cls-4" d="M110.29,45.78h.53s.06,0,.17,0c.09,0,.23,0,.32.04-.04.09-1.64.43-4.8,1.04-4.74.91-.04.11-.06.15.81.32,3.02.36,3.03.36.04.04.08.08.11.11-.87.21-1.87-.63-2.64.33,1.77.84,1.81.82,2.83.48.3.26.42.3.83.13,1.69-.65,4.62.32,5.68,1.9-.15.16-.22.33-.22.49.23.14.36.25.4.34-.17.44-.26.69-.26.74.6.09,1.17-.17,1.75-.16.42.6,1.3.39,1.74.97-.9.04-1.75-.41-2.66-.33.74.58,1.72.52,2.49.99.08.38-.28.6-1.07.68-.5.87-.75,1.4-.77,1.6.21.11.43.04.66.07v.17c-.07.05-.29.14-.66.27l5.3,5.52c.6.39,1.17-.34,1.77-.1.49.21.85.67,1.4.75.68.09,1.07-.06,1.21-.1.02-.11,0-.28-.06-.4,0,0,.69-1.32.24-2.11.2-.55.96-.61,1.07-1.25-.17-.23-.21-.3.02-.53-.15-.26-.42-.41-.59-.66.43-.04.71-.11.85-.21.21-.15-.23-.15-.32-.21.38-.23.77.17,1.17,0,.06-.19.07-.38.15-.55.06,0,.11,0,.17.02-.02.04-.06.09-.07.15.49.96,2.62-.5,3.42-1.81-.23-.19-.47-.34-.66-.56,2.74,1.38,6.02-1.21,6.06-1.25-1.92-.1-2.47-.29-2.75-.95,1.02-.34,1.61,1.1,2.66.63-.2-1.66-2.04-1.18-3.04-1.78,0-.06-.02-.13-.04-.19.96.66,1.87.59,1.92.58-.15-.29-.82-.61-2-.97-1.77-.54,0-.13-.02-.19,1.02.26,1.73.33,2.13.22,0-.55-.51-.49-1.15-.41,0-.06-.02-.11-.04-.15.32-.11.64.05.96.03-.04-.04-.09-.09-.13-.13.49.19.51.19.72.17,0-.19-.1-.36-.12-.53.04-.04.08-.08.11-.11.06,0,.13.02.19.02.04-.04.09-.08.15-.11-.16-.09-.48-.17-.94-.24-.7-.11,0,.04.3.53-.41.21-.7-.17-1.04-.24,0-.06,0-.11.02-.17.09.04.23.07.32.11.04-.04.08-.08.11-.11-.06-.21-.11-.4-1.38-.9,0,.11-.09.25-.15.32-.25-.19-.49-.36-.74-.52.15.05.35.12.59.22.33-.15.56-.21.72-.17.45.11.76.52,1.23.64-.23-.21-.51-.32-.72-.54.04-.06.07-.11.11-.17-.34-.28-.81-.17-1.17-.37.11-.04.24-.06.36-.08-.43-.25-.9-.31-1.41-.18,0-.11,0-.24.04-.36-.06-.11-.1-.26-.11-.4.25.07.43.09.53.05-.15-.19-.36-.32-.49-.51.09-.03.26-.03.53-.02-.08-.19-.1-.24.05-.51-.13-.04-.28-.13-.4-.21.24.02.49.09.74.09-.02-.06-.06-.11-.08-.17.26-.14.42-.27.47-.38-.78-.67-3.63.47-3.67.47-.04-.04-.09-.07-.13-.11.13-.17.3-.27.45-.42-.36-.26-.38-.26-.7-.28.06.04.11.11.17.15,0,.06-.04.11-.06.15-.57-.2-1.11.34-1.68.05.15-.04.36-.13.49-.23-1.11-.13-2.22.33-3.33.05,1.22-.38,2.5-.2,3.75-.34.04-.06.09-.11.11-.17,0,0-1.83-.56-4.43-.55-.08,0-6.78.22-7.33.58.53.32,1.17.32,1.7.63-1.19-.33-2.43-.69-3.15-.63.06.21.27.32.32.51-.4-.05-.87-.03-1.41.04-.23-.26-.49-.56-2.62-.2,0,.06-.02.11-.04.17-.04,0-3.77.47-4.42,1.07.13.05.31.07.57.07l-.13.06Z"/>
            <path class="cls-4" d="M117.29,53.55c.13.04.15.21.28.26h.04c.06,0,.09,0,.19-.04,0,0,1.03-.42,1.11-.48,0,0,.02-.02.04-.04,0-.06-.02-.08-.23-.13-.17-.06-.34-.04-.51-.07-.25-.06-.47-.15-.72-.2-.11-.02-.36-.07-.58-.07-.08.04-.11.17-.15.4,0,.09-.04.21.06.26.15.09.32.04.47.09v.02Z"/>
            <path class="cls-4" d="M145.87,56.55c-.23-.07-.34-.28-.55-.39-.17-.07-.36,0-.53-.07-.4-.22-.62-.32-.66-.28-.06.06,0,.11.1.3-.19.4-.72-.24-.9.15-.09.18-.19.21-.3.1-.13-.11-.49-.49-.45-.07,0,.08,0,.13,0,.17-.28.1-.4-.21-.62-.26,0,0-.02.02-.04.04,0,.17.13.28.12.45-.09,0-.17-.06-.26-.04-.06.01-.05.06.04.15.13.13,0,.02-.02.04,0,0-.3-.06-.45-.3-.34-.47-1.17-.73-1.34-.75-.24.04-.09.23.08.3.23.09.21.15.19.23-.04.02-.08.06-.21,0-.1-.04-.3.08-.6.34-.11.11-.02.26.06.34.15.09.32,0,.49.04.09,0,.13-.02.15-.04.08-.06.17-.13.49-.08.32.06.38.21.27.3-.23.23-.58.1-.83.27v.06s.12.01.36,0c.79-.14.9-.15,1.47.63-.44.01-.67.03-.68.04-.02.02.04.09.47.3.09.04.17.07.26.07.28.04.53-.12.79-.1.51.04.96.35,1.47.33.34,0,.58-.06.68-.17.24-.25.56-.12.85-.21.23-.08.19-.32.34-.45.11-.11.26-.13.38-.25.02-.02.06-.08.07-.09.07-.15.13-.47.05-.66-.05-.14-.31-.27-.77-.41l.06-.02Z"/>
            <path class="cls-4" d="M155.44,64.86s.02.06.04.08c0,.02.02.06.04.08,0,.02.02.04.04.08,0,.02.02.04.04.06,0,0,.02.04.04.06.04.06.04.08.06.15.02.06.04.09.06.11.13.06.13-.26.13-.26,0-.15-.13-.24-.17-.38,0,0,.02,0,.04-.02,0-.13-.1-.24-.1-.38s.09-.25.09-.4v-.06c0-.11-.08-.3-.13-.41-.02-.06-.06-.13-.17-.13-.13,0-.06.15,0,.21.02.04.06.09.04.13-.07.11-.21-.04-.3,0-.04.11.06.3.11.41.08.11.06.13.06.15-.04,0-.06,0-.15-.06-.06-.04-.08-.04-.09,0-.01.03.07.16.25.41.27.38.02.04.04.06,0,.02.02.04.04.06,0,.02.02.04.04.08l-.02-.02Z"/>
            <path class="cls-4" d="M187.38,164.08v-.08c-2.41,3.99-3.14,5.18-4.06,6.2-.67.74-3.32,4.4-3.45,4.84,2.96-2.75,6.99-9.19,8.5-11.62-.11.23-.17.35-.19.38-.02.04.11-.15.54-.91.28-.49,1.74-3.15,2.13-4.21-.86,1.15-1.38,2.49-2.15,3.7-.34.53-.94,1.44-1.35,1.7h.02Z"/>
            <path class="cls-4" d="M190.45,91.42s-.04,0-.09.15v.02c-.02.06,0,.11,0,.11.06.23.47.81.53.85s.08-.08.09-.09c.02-.13,0-.26,0-.4,0-.08.06-.15.06-.23l-.19-.96v-.02s-.02-.04-.04-.06c-.06.02-.09.19-.09.32,0,.09,0,.11-.04.15s-.09,0-.13.02c-.06.04,0,.11-.04.15h0l-.06-.02Z"/>
            <path class="cls-4" d="M186.95,91.6h.24c.11.05.17.17.26.26.04.04.17.15.23.11l.23-.23s.02-.02.04-.04c.02-.04.06-.09.06-.17,0-.09-.21-.39-.38-.22-.04.04-.06.04-.11-.04-.06-.09-.09-.13-.23-.17-.11-.04-.24,0-.36-.02-.13-.02-.19-.13-.3-.34,0-.04-.06-.09-.08-.11h0c-.08.06,0,.51,0,.53.08.15.27.38.45.43h-.06Z"/>
            <path class="cls-4" d="M174.66,82.03s.23.85.66,1.11c.64.37-.13.96-.15.96.12.45.55.69.7,1.11.15.39.21.81.4,1.19,0,.04.17.32.27.38.08.04.11,0,.13-.02,0,0,.02-.02.04-.04.07-.09.06-.23.09-.32.04-.09.24-.04.23-.17-.04-.34-.27-.6-.38-.9-.29-.79-.31-.92-.36-1.22-.08-.32-.38-.47-.53-.73-.06-.08-.04-.19-.06-.26-.1-.38-.46-1.18-.61-1.49-.13-.26-.19-.36-.27-.39-.07.19.1.32.08.49-.08.04-.11.09-.26.34l.02-.02Z"/>
            <path class="cls-4" d="M172.64,85.45s-.11-.06-.17-.06c0,0-.06,0-.11-.02-.09-.04-.13-.13-.21-.17h-.02c-.13.02-.24.51-.2.62.04.08.17.07.23.07h.11c.09.04.19.19.27.3,0,.02.04.06.08.08.15.09.2-.58.2-.62,0-.09-.09-.17-.15-.21h-.02Z"/>
            <path class="cls-4" d="M172.98,85.33s.08.08.15.17c.04.04.06.08.09.09.08.04.09-.06.06-.17-.06-.24-.42-.36-.47-.36h0c-.06,0-.09.09-.06.15h.04s.08,0,.19.13v-.02Z"/>
            <path class="cls-4" d="M171.63,86.9c.13.09.17-.26.17-.32t-.23-.24s-.06-.06-.09-.06c-.11.02-.13.3-.11.32,0,.02,0,.04.04.08,0,0,.19.19.23.21v.02Z"/>
            <path class="cls-4" d="M196.18,112.36c-.81-3.22-1.9-7.45-3.41-13.34,1.81,4.27,2.56,8.81,3.41,13.34ZM175.34,78.41c.11-.17.28-.4.39-.59l4.68,5.73c-1.74-1.67-3.84-3.02-5.09-5.16l.02.02ZM197.95,120.25c.33,1.07.69,2.14,1.13,3.2.71-1.57.72-3.28.71-5.86-.2-3.07-.69-7.16-1.08-10.21l-.21-1.22v.51c-.21-1.36-.21-1.37-.46-2.33.02.19.06.47.08.66-.42-2-1.56-3.84-1.4-5.99,0,.02.71,2.39,1.21,4.2-.63-2.65-1.67-6.13-2.43-8.73-1.26-3.72-3.47-8.5-5.16-12.03-1.94-3.38-4.71-7.78-6.89-10.99,0-.72-5.93-7.06-8.47-9.76-2.4-2.25-5.75-5.12-8.28-7.22-.25-.19-.59-.43-.83-.6.61.54,1.08,1.01,1.44,1.43-.88-.66-1.49-1.07-1.83-1.22-.51-.22,2.53,2.17,3.63,3.51-.21-.06-.47-.11-.66-.17.38.19.83.52,1.08.84,0,0-2.27-1.48-3.69-2.58.4.15,1,.18,1.41.09-2.31-2.18-5.53-2.37-8.17-3.81-.22.32-.69.64-1.07.76-.07.41-.15.96-.2,1.38.32.24.85.43,1.25.47.04,1.26,1.05,2.14,1.28,3.33-2.32,3.16,2.14,5.79,3.06,6.3.19-.06.45-.13.64-.19.19-.42.33-1.04.31-1.49,2.88,2.8,4.54,4.26,4.99,4.39-.1-.19-.21-.43-.3-.6.11-.17.26-.4.37-.57-1.01-3.46-4.56-5.42-5.33-9.04,3.15.48,2,5.62,5.69,5.38.07-.23.19-.53.26-.77.4.17.91.47,1.27.71-.36.19-.83.47-1.15.72.53.75,1.47,1.18,1.61,2.22h-.72c.4.58.92,1.19,1.55,1.84-.11.36-.11.92,0,1.28-.32-.24-.87-.45-1.26-.5-.15.17-.36.4-.53.57-.49-.09-1.13-.22-1.6-.35-.13.15-.32.34-.45.49-.13-.19-.32-.43-.46-.64.15-.13.34-.32.47-.45-.15-.17-.34-.39-.47-.56-.23,0-.51-.04-.73-.03.02.23.06.51.1.73-1.35-1.97-2.07-2.99-2.16-3.06.04.21.08.47.12.66-.19.06-.45.12-.66.17,1.54,2.33,2.32,3.52,2.33,3.57-.41.13-.96.31-1.35.44.23,1.42.02,2.29-.63,2.62.21.36.4.86.5,1.24-.21.02-.47.04-.66.06-.04.21-.07.51-.11.72-.38-.15-.85-.43-1.17-.71.06.43.23,1.02.42,1.41-1.09-.18-1.17-.15-1.92.29.62.65,1.39,1,2.3,1.06.61,1.6,2.23,2.65,2.47,4.45-.13.17-.32.4-.47.57-2.51-.21-3.89-.38-4.13-.49-.26.3-.68.64-1.03.85.86,1.32,1.33,3.12,1.4,5.42.11,3.45.09.06,1.41,2.46.23.06.51.13.74.19.17-.13.38-.32.53-.45.59.47.93,1.18,1.55,1.61.4-.27,1.33-.61,2.78-1.03.31-1.81,0-3.69.45-5.48.38-.17.81-.55,1.05-.87-.1-.64-.53-1.2-.46-1.9.21-.1.47-.23.66-.32.36.21.91.34,1.3.31.22-.36.5-.83.73-1.17.21-.02.47-.06.68-.1,1.12.97,6.71,5.9,6.65,7.64-.19.06-.45.15-.64.21-.17-.09-.42-.21-.59-.3-.15.13-.36.3-.51.44.64.71,1.55,1.07,2.29,1.65-.11-.43-.29-1.02-.42-1.47.58-1.13-.2-2.15-.28-3.22.19,0,.41.04.62.05l3.22,3.94c.28.32.79.64,1.19.8-.17-.39-.36-.94-.48-1.35.21,0,.47-.04.66-.06-.68-1.3-1.91-2.23-2.39-3.68.17.11.38.28.55.39-.06-.23-.12-.53-.17-.75.21-.02.47-.06.66-.1,1.5,1.95,1.85,4.74,4.28,6.03.02-.21.04-.51.05-.72.13.15.32.36.47.51.23,0,.53,0,.75-.02v-.68c1.38,1.01,2.31,6.68,2.25,7.49-.41-.05-.96-.05-1.38,0-.11.17-.28.4-.39.55-2.36-1.56-3.72-2.4-4.1-2.53-.17.17-.38.38-.54.55.33,1.61.43,2.59.3,2.94-1.2-.82-2.06-1.37-2.59-1.65-.79-.41-2.82-2.44-4.18-3.32.02-.21.09-.49.09-.7.17-5.2-3.13-4.24-4.67-2.99-.94-.24-1.86.27-2.81.13-.26.34-.54.85-.71,1.23-1.07.31-2.16.48-3.24.77-.27-.34-.64-.77-.97-1.09-.35,1.42-1.1,2.8-2.26,4.14.72,4.86.17,5.31-2.17,7.15.02.47-.01,1.11-.2,1.55-.95,2.21-3.06,7.49-2.22,8.71,2.01,2.95-.37,5.94.08,8.89.6,3.93,3.13,9.17,7.61,15.72,3.81-.04,6.81-2.89,10.59-2.97.44.9.4,1.92.71,2.86,1.69.48,1.94,6.07.77,16.76-.12,1.16-1.28,3.75-3.47,7.8l-12.05,23.34c13.96-3.92,34.14-34.54,34.86-59.26-.17.79-.18.94-.95,1.91-.18-2.81-.3-4.48-.73-6.87h.09Z"/>
            <path class="cls-4" d="M158.55,68.84c-.15-.24-.13-.28-.08-.4,0-.04.02-.06.02-.08,0-.04-.06-.08-.04-.13.01-.04.08-.12.21-.25.19-.19-.02-.06-.04-.08l-.68-.73s-.09-.09-.19-.13c-.04-.02-.09-.04-.11-.04h-.04c-.09,0-.15.06-.24.06-.23,0-.43-.11-.66-.13l-.55.17s-.07.11-.07.13c0,0-.04.36.38.45.02,0,.06,0,.08.04,0,0,.04.55-.75.21-.15-.07-.28-.13-.36-.11-.11,0,.04.58.32.79,0,0-.13.55.34.54.87,0,.72.19.7.2-.04.04-.11.06-.13.13-.02.11.06.23.04.34v.04s-.21.38-.32.4c0,0-.04,0-.06.02-.04.04,0,.11,0,.15.09.13.23.19.32.3.09.11.11.28.23.39.04.04.45.15.51.15.49.05.66-.21.75-.34.24-.36.32-.4.43-.42h.66s.04,0,.06,0c.02-.26.03-.6-.04-.79-.15-.34-.47-.54-.66-.86l-.02-.04Z"/>
            <path class="cls-4" d="M160.31,70.32c-.13,0-.21.04-.21.11,0,0,.17.55.25.6.19.13.28-.19.45-.12.17.07.28.24.45.32,0,0,.49.11.73-.04.17.04.19.21.15.26-.21.3-.58.02-.81.27-.26.26-.15.66-.33.94-.06,0-.13,0-.21-.02-.11-.02-.04.02-.06.02.06.09.25.3.45.3.26,0,.09-.38.32-.45.26-.08.47.17.72.15.04-.21-.15-.43.09-.6.24-.17.4.11.62.13.15,0,.23-.15.38-.15.17,0,.25.17.42.17.02,0,.06,0,.08-.02,0-.15.09-.45.32-.27.13.11.32.21.47.15.06-.02.86-.72.34-.91h-.64c.19-.13.41-.73.35-.94-.19-.77-.46-.73-1.21-.58-.13.02-.19,0-.19-.24,0-.16-.15-.36-.45-.6-.28-.32-.51-.69-.83-.98-.28-.24-.72-.19-.98-.47-.28-.3-.53-.66-.87-.92-.18-.12-.51-.24-1-.35-.74-.17-.04-.11,0-.3.06-.25.15-.75-.18-1.32,0,0-.59-.3-.83-.07-.34.3-.76-.35-.76-.41.02-.28.37-.43.3-.75,0-.08-.44-.64-.64-.69-.36.1.19.49.15.77-.72.12-.79.08-.9,0,0,0-.04,0-.06.02.27.71.17.88.17.9-.02,0-.08-.02-.09-.02.16.31.25.49.25.53-.19-.11-.32-.3-.51-.43,0,0-.04.02-.06.04.06.15,0,.34.15.47.21.21.53.2.72.45-.18.11-.04.34.42.68.68.51.26.21-.21.26,0,0-.02.04-.04.06.02.06.4.43.55.49.04-.08.04-.15.07-.23.17.28.19.32.44.43,0,0,.04,0,.06-.02-.06-.47-.06-.58.13-.43.13.1.18.32.15.66.04.17.83.81.91.43.04-.21.06-.21.11-.21.04,0,.14.12.32.36.19.21.47.28.66.49.06.06.25.53.25.53,0,0,.13.51-.28.28-.4-.22-.47-.15-.51-.11,0,.19.13.34.15.51,0,0-.04.04-.06.06h-.06c.1.34.57.09.66.43.08.3-.13.32-.22.34l-.02.06Z"/>
            <path class="cls-4" d="M151.52,47.11s-.26-.15-.36-.19-.17.02-.26-.02c-.25-.15-.36-.21-.45-.24h-.04s.02.08.02.11c-.6-.17-1.1-.64-1.76-.67-.09.09-.45-.11-.47-.11-.11-.06-.19-.1-.23-.11-.06-.02-.02.04-.04.06h-.06c-.17-.06-.28-.22-.47-.24-.29-.04-.47-.07-.53-.09-.09-.04-.08-.04-.15-.04h-.02c.27.38.81.28,1.11.62-.23-.07-.68-.24-.94-.35-.16-.06-.26-.09-.3-.09-.06,0,.02.06.06.11v.04c-.17-.04-.3-.17-.47-.19h-.4s0,.02,0,.04c0,0,.02.06.02.08-.15-.04-.26-.13-.42-.17.06.04.49.32.62.39.02,0,.06.04.08.04,0,0,.21.09.38.11.17,0,.23.19.38.24,1.06.43,1.19.33,1.24.3-.04-.11-.13-.15-.21-.23.24,0,.42.21.66.19v-.04c.06.06.09.09.13.15,0,0,0,.02-.02.04-.17,0-.32-.07-.49-.07v.04c.09.09.36.28.59.28.21-.23.43,0,.51.11v.06c-.15.02-.26-.06-.41-.05.09.06.38.19.53.24.17.07.36.04.53.11.67.3,1.01.45,1.04.45-.25-.24-.55-.41-.79-.66l.02-.02h.15s0,0,.02-.02c-.19-.13-.4-.22-.57-.37,0,0,.02,0,.04-.02-.08-.15-.3-.13-.34-.32-.03-.13,0-.15.08-.08,1,.35,1.09.48,1.23.64,0,0,.21.21.34.21,0,0,0-.02-.02-.04,0,0-.09-.17.09-.13.23.06.4.22.6.3l.02-.02c-.08-.11-.11-.24-.23-.32l-.04-.04Z"/>
            <path class="cls-4" d="M147.52,46.73l-.36-.11c-.17-.06-.23-.07-.51-.22-.21-.11-.23-.11-.28-.13h0s.04.15.25.22c0,0,.87.3.96.26h-.04s-.02-.02-.02-.02Z"/>
            <path class="cls-4" d="M147.14,45.36s.04.09.06.13c0,0,.02.02.04.04.09.07.3.19.38.22.11.04.23,0,.34.06.13.04.25.13.4.17h.17c.11.04.21.09.32.11.08,0,.11-.08.17-.08.17,0,.32.13.51.15h.06s.09,0,.15,0h0s-.09-.06-.08-.11c0-.06.11-.02.11-.09,0,0,0-.04-.02-.06-.06-.09-.23-.19-.4-.28s-.51-.22-.55-.2c-.03.01-.02.03,0,.06.04.04-.04,0-.11,0-.19-.06-.3-.07-.43-.07h0s.08.06.09.09c.01.03,0,.02-.06-.02-.08-.06-.45-.17-.47-.17.15.11.34.19.49.3-.57-.15-.91-.24-1.02-.28-.15-.06-.23-.09-.28-.09h0c.04.06.09.07.13.13h0Z"/>
            <path class="cls-4" d="M165.91,54.03h0s-.42-.34-.42-.36c-.04-.04-.55-.39-.62-.41h0c0,.08,1.04.79,1.06.79l-.02-.02Z"/>
            <path class="cls-4" d="M163.9,52.42h0c-.26-.19-.62-.43-.76-.52-.09-.06-.01,0,.23.17-.93-.58-1.83-1.22-2.74-1.82,0,0,.04,0,.04.02-.13-.09-.45-.28-.45-.3h.02c-.25-.13-.47-.3-.72-.45l4.38,2.86v.04Z"/>
            <path class="cls-4" d="M151.1,45.21s.26.09.3.09h0s-.21-.13-.42-.22c-.11-.06-.13-.06-.13-.06l.08.06c.08.04.11.07.13.07.06.04.04.06.04.06Z"/>
            <path class="cls-4" d="M152.36,45.67s-.3-.17-.34-.17h0s-.57-.26-.59-.26c.04,0,.08.04.11.04-.13-.07-.32-.17-.57-.28,0,0-.04,0-.06-.02.04.02.08.04.11.07h-.04c.09.06.21.07.28.15h-.02s.04.02.13.07c.21.09.21.11.23.11,0,0-.02,0-.09-.04,0,0,.53.26.57.26.03,0,.01,0-.04-.02-.08-.02.04,0,.06,0-.11-.06-.23-.11-.32-.17,0,0,.02,0,.15.07.38.17.4.17.42.19v-.02Z"/>
            <path class="cls-4" d="M151.89,45.41l-.19-.09s.36.19.4.19c-.02,0-.21-.09-.21-.09Z"/>
            <path class="cls-4" d="M151.45,45.2l-.64-.3.64.3Z"/>
            <path class="cls-4" d="M33.89,96.13c-.26.62-.98.93-1.62.67-.62-.26-.93-.98-.67-1.62.26-.62.98-.93,1.62-.67.62.26.93.98.67,1.62ZM33.45,93.98c-.92-.37-1.96.05-2.35.97-.37.92.05,1.96.97,2.35.92.37,1.96-.05,2.35-.97.37-.92-.05-1.96-.97-2.35Z"/>
            <path class="cls-4" d="M38.74,84.44c-.26.62-.98.93-1.62.67-.62-.26-.93-.98-.67-1.62.26-.62.98-.93,1.62-.67.62.26.93.98.67,1.62ZM38.29,82.31c-.92-.37-1.96.05-2.35.97-.37.92.05,1.96.97,2.35.92.37,1.96-.05,2.35-.97.37-.92-.05-1.96-.97-2.35Z"/>
            <path class="cls-4" d="M29.8,88.23l-3.11-1.29,1.44-3.45,3.45.46-1.79,4.3.02-.02ZM27.85,92.93l-2.67-2.36,1.17-2.85,3.11,1.29-1.62,3.91v.02ZM39.87,77.39l-2.64-.12c-.98-.05-1.9.39-2.5,1.16l-3.58,4.71-2.43-.29c-.6-.07-1.17.27-1.41.82l-2.55,6.17c-.22.53-.07,1.15.36,1.52l2.42,2.08-.34,3.05c-.11.94.25,1.88.95,2.52l1.99,1.82c.44.39,1.13.24,1.36-.31l1.12-2.68.07-.19c-.24,0-.47-.05-.72-.15-1.04-.43-1.51-1.61-1.09-2.63.43-1.04,1.61-1.51,2.63-1.09.23.09.43.24.6.39l3.39-8.19c-.24,0-.47-.05-.72-.15-1.04-.43-1.51-1.61-1.09-2.63.43-1.04,1.61-1.51,2.63-1.09.23.09.43.24.6.39l1.62-3.93c.22-.55-.16-1.15-.74-1.18l.04-.02Z"/>
            <path class="cls-4" d="M27.59,116.63l-3.09-.31.78-7.56,3.09.31-.78,7.56ZM22.92,116.14l-5.86-.6c-.94-.09-1.62-.93-1.53-1.88l.41-4.17c.09-.94.93-1.62,1.88-1.53l5.86.6-.78,7.56.02.02ZM17.52,106.47c-1.58-.16-3.01.99-3.17,2.58l-.49,4.77c-.16,1.58.99,3.01,2.58,3.17l14.63,1.5,1.06-10.52-14.63-1.5h.02Z"/>
            <path class="cls-4" d="M25.8,111.82c.11.11.23.21.34.3s.23.21.34.3c.04.04.08.08.11.09-.06,0-.11.02-.17.04l-.23.04-.23.06-.3.06.25.17.17.13s.11.09.19.13c.06.04.11.09.19.13l.19.13c.13.07.25.17.38.24.13.07.26.15.38.22-.09-.11-.21-.21-.32-.32-.11-.09-.21-.21-.32-.3l-.17-.15s-.11-.09-.17-.15c-.04-.04-.08-.06-.11-.09l.17-.04s.15-.04.23-.04.15-.04.23-.06l.3-.06-.25-.19s-.13-.09-.19-.13-.13-.09-.19-.13c-.13-.09-.25-.17-.38-.26-.13-.09-.26-.17-.38-.24-.13-.07-.26-.15-.4-.22.11.11.21.23.32.32l.02.02Z"/>
            <path class="cls-4" d="M21.16,106.62l-2.07-.41c.07-.38.43-.62.83-.55l.72.13c.38.07.62.43.55.81l-.02.02Z"/>
            <path class="cls-4" d="M28.82,100.12c-.28.27-.71.27-.98,0l-.51-.51c-.27-.28-.27-.71,0-.98l1.5,1.5v-.02Z"/>
            <path class="cls-4" d="M28.76,104.31l-.45.98c-.35.77-1.28,1.12-2.07.76l-3.78-1.74c-.55-.26-1.21,0-1.47.53l-.62,1.32-.42-.19.62-1.32c.35-.77,1.28-1.12,2.07-.76l3.78,1.74c.55.26,1.21,0,1.47-.53l.45-.98c.26-.55,0-1.21-.53-1.47-.77-.35-1.12-1.28-.76-2.07l.63-1.4.42.19-.63,1.4c-.26.55,0,1.21.53,1.47.77.35,1.12,1.28.76,2.07Z"/>
            <path class="cls-4" d="M33.6,38.78c-.34.45-.64.96-.86,1.51-.11.28-.2.57-.26.85-.06.3-.09.6-.09.9s.04.62.14.92c0,.04,0,.06.02.09h-.11s-.15-.04-.25-.05h-.24s-.24,0-.24,0h-.24c-.08,0-.15.02-.24.04h-.11s-.08.04-.11.04c-.08,0-.15.04-.23.06l-.23.08c-.15.06-.3.11-.43.17-.08.04-.15.06-.21.1-.08.04-.13.08-.21.11-.53.32-1,.72-1.41,1.16-.21.23-.39.45-.56.7-.17.25-.34.49-.47.76.39-.44.83-.83,1.28-1.19.45-.36.92-.68,1.43-.91.06-.04.13-.06.19-.08.04,0,.06-.02.09-.04l.09-.04c.13-.06.26-.1.4-.13.26-.08.53-.12.79-.14.53-.04,1.06.07,1.55.28l1.15.47-.74-1.01h0s0-.04-.02-.06c0-.02-.04-.06-.04-.08-.04-.06-.06-.11-.08-.17-.06-.11-.1-.23-.13-.34-.08-.24-.12-.49-.14-.75,0-.26,0-.51.03-.77s.09-.53.17-.77c.15-.51.37-1.02.63-1.51.26-.49.56-.96.86-1.44-.43.38-.81.79-1.16,1.25Z"/>
            <path class="cls-4" d="M160.4,14.36c-.55-.19-1.11-.3-1.7-.33-.3,0-.58,0-.89.02-.3.04-.6.1-.88.21-.28.1-.56.25-.83.42-.02,0-.06.04-.08.06v-.11s-.04-.15-.06-.24c-.02-.08-.04-.15-.06-.23l-.08-.23s-.06-.15-.1-.23c-.04-.08-.08-.15-.11-.21l-.06-.11s-.04-.08-.06-.09c-.04-.08-.08-.13-.13-.21l-.13-.19c-.09-.11-.19-.24-.3-.36-.06-.06-.11-.11-.17-.17s-.11-.11-.17-.15c-.47-.39-1-.71-1.55-.95-.28-.11-.55-.22-.85-.32-.28-.09-.57-.15-.87-.2.55.24,1.06.5,1.55.82s.94.66,1.32,1.05c.06.06.09.09.13.15.02.02.04.06.08.08l.06.08c.09.09.17.21.25.32.15.23.28.47.38.71.21.49.27,1.02.25,1.56l-.07,1.24.73-1.02h0s0-.04.02-.06c0-.02.04-.04.06-.08.04-.04.07-.09.13-.13.09-.08.19-.17.28-.23.21-.15.43-.27.66-.36.24-.1.49-.17.75-.21.26-.06.53-.08.79-.1.53,0,1.07.01,1.62.11.55.09,1.09.22,1.64.35-.49-.28-1.02-.5-1.55-.69l-.02.02Z"/>
            <path class="cls-4" d="M162.94,21.88c-.42-.13-.87-.22-1.32-.26-.23,0-.45,0-.68.02s-.45.08-.68.15-.43.19-.64.32c-.02,0-.04.02-.06.04v-.09s-.04-.11-.06-.19c0-.06-.02-.11-.06-.17l-.06-.17s-.04-.11-.08-.17c-.02-.06-.06-.11-.08-.17l-.04-.08s-.04-.06-.06-.08c-.04-.06-.06-.11-.09-.15l-.11-.15s-.15-.19-.25-.26c-.04-.04-.08-.09-.13-.13-.04-.04-.09-.07-.13-.11-.36-.32-.77-.54-1.19-.73-.21-.09-.43-.17-.64-.24-.23-.07-.43-.11-.66-.15.42.19.81.39,1.19.64s.72.51,1.02.81c.04.04.08.08.11.11,0,.02.04.04.06.06l.06.06s.13.17.19.24c.11.17.21.36.29.55.15.38.21.79.19,1.2l-.05.96.56-.79h0v-.04s.02-.04.04-.06c.04-.04.06-.08.09-.09.08-.06.15-.13.23-.19.15-.11.34-.21.51-.28.19-.08.38-.13.56-.17.21-.04.4-.06.6-.08.41,0,.83.02,1.26.09.41.07.85.17,1.26.28-.38-.22-.77-.41-1.19-.54l.02.02Z"/>
            <path class="cls-4" d="M217.96,74.15c-.25-.36-.55-.69-.91-.99-.17-.15-.36-.28-.57-.39-.21-.11-.42-.21-.64-.28s-.47-.11-.7-.13h-.08s.04-.08.04-.08c0,0,.06-.11.07-.17s.06-.11.07-.17l.06-.17s.04-.11.04-.19c0-.06.02-.11.04-.19v-.09s.02-.06.02-.09v-.19s0-.19,0-.19c0-.11,0-.24-.02-.36,0-.06,0-.11-.02-.17,0-.06-.02-.11-.04-.17-.12-.47-.29-.9-.51-1.3-.11-.21-.25-.39-.38-.58-.13-.19-.28-.36-.45-.53.23.39.42.79.59,1.22.15.41.29.83.34,1.26v.15s0,.06,0,.08v.08c0,.11,0,.21,0,.32,0,.21-.04.41-.09.6-.09.4-.3.75-.56,1.08l-.6.74.92-.31h.02s.02,0,.04,0h.06s.09,0,.13-.02h.28c.19,0,.38.03.58.07.19.06.38.11.57.2s.36.19.53.3c.34.22.66.51.96.82.3.3.57.64.85.98-.17-.39-.4-.79-.65-1.15h0Z"/>
            <path class="cls-4" d="M219.48,68.9c-.17-.26-.4-.49-.62-.69-.13-.09-.26-.19-.4-.28-.13-.07-.28-.15-.45-.19-.15-.06-.32-.07-.49-.09h-.06s.04-.06.04-.06c0,0,.04-.08.06-.11,0-.04.04-.08.06-.11l.04-.13s.02-.08.04-.13c0-.04,0-.09.02-.13v-.06s0-.04,0-.06v-.13s0-.13,0-.13v-.24s0-.08,0-.13c0-.04,0-.08-.02-.13-.08-.32-.21-.62-.36-.9-.08-.13-.17-.28-.27-.41s-.21-.24-.32-.36c.15.28.3.56.4.85.11.28.19.58.23.88v.11s0,.04,0,.06v.06s0,.15,0,.23c0,.15-.02.28-.05.43-.07.28-.2.53-.39.76l-.43.51.64-.21h.02s.04,0,.04,0h.09c.06,0,.13,0,.21,0,.13,0,.26.02.4.05s.26.09.4.15c.13.06.25.13.38.21.25.17.45.36.66.58.21.21.4.45.61.68-.11-.28-.27-.55-.46-.81l.02-.04Z"/>
            <path class="cls-4" d="M218.45,78.99c-.15-.21-.32-.39-.51-.56-.09-.07-.21-.15-.32-.22-.11-.06-.25-.11-.36-.15-.13-.04-.26-.06-.4-.07h-.04s0-.04,0-.04c0,0,.06-.06.07-.09,0-.04.04-.06.04-.09l.04-.09s0-.08.02-.09v-.09s0-.06,0-.06v-.06s0-.08,0-.09v-.09s0-.13,0-.21v-.09s0-.08-.02-.09c-.06-.26-.17-.51-.29-.73-.06-.11-.13-.23-.21-.32-.08-.11-.17-.21-.25-.3.13.23.25.45.32.7.1.23.15.47.19.72v.09s0,.04,0,.04v.04s0,.11,0,.17c0,.11-.02.23-.06.34-.06.23-.17.43-.32.6l-.34.42.53-.17h.04s.06,0,.08,0h.17c.11,0,.23,0,.32.04.11.02.21.07.32.11.09.06.21.11.3.17.19.13.38.28.55.47.17.17.32.36.49.54-.1-.23-.23-.45-.36-.66l-.02-.04Z"/>
            <path class="cls-4" d="M225.33,80.84c-.28-.41-.63-.79-1.02-1.13-.21-.17-.42-.32-.64-.43-.23-.13-.47-.24-.72-.32-.26-.07-.53-.13-.79-.13h-.08s.06-.09.06-.09c0,0,.06-.13.09-.19.02-.06.06-.13.07-.19l.07-.21.06-.21s.02-.13.04-.21v-.09s.02-.08.02-.09v-.21s0-.21,0-.21c0-.13,0-.28-.04-.41,0-.08,0-.13-.04-.21,0-.08-.02-.13-.04-.21-.12-.53-.32-1.02-.59-1.47-.13-.23-.27-.45-.44-.66-.15-.21-.32-.41-.51-.58.27.45.48.9.67,1.37.17.47.32.94.38,1.43v.19s0,.06,0,.09v.09c0,.11,0,.24,0,.36,0,.24-.04.47-.11.7-.11.45-.34.87-.64,1.23l-.69.83,1.03-.34h.02s.02,0,.04,0h.08c.06,0,.09-.02.15-.02h.32c.23,0,.43.03.66.09.21.06.43.13.64.24.21.09.42.22.6.34.38.26.76.58,1.08.92.34.34.64.71.97,1.11-.19-.45-.44-.88-.74-1.3l.04-.09Z"/>
            <path class="cls-4" d="M152.93,16.75c-.3-.15-.64-.26-.98-.32-.17-.04-.34-.06-.53-.05-.17,0-.36,0-.53.06-.17.04-.36.1-.53.19,0,0-.04,0-.06.02v-.08s0-.09,0-.15,0-.09-.02-.15v-.13s-.06-.09-.08-.13c0-.04-.04-.09-.04-.13v-.08s-.04-.04-.06-.06c-.02-.04-.04-.09-.06-.13l-.08-.11s-.09-.15-.15-.23c-.02-.04-.06-.08-.09-.11-.04-.04-.06-.08-.09-.11-.25-.26-.53-.49-.85-.67-.15-.09-.3-.17-.47-.24s-.32-.13-.49-.17c.3.17.59.37.85.6.26.22.51.45.7.71.02.04.06.08.08.09,0,0,.02.04.04.06l.04.06s.08.13.11.21c.08.15.13.28.17.45.08.3.1.62.04.94l-.13.72.51-.55h0v-.02s.02-.02.04-.04c.02-.02.06-.04.08-.08.06-.04.11-.08.19-.11.13-.08.26-.13.41-.17s.3-.06.45-.08h.47c.32.02.64.09.94.18.32.09.62.2.94.33-.26-.21-.57-.37-.87-.52h.04Z"/>
            <path class="cls-4" d="M32.99,47.14c-.19.26-.36.53-.49.83-.06.15-.11.3-.15.47s-.06.34-.05.51.02.34.08.51v.06s-.06,0-.06,0c0,0-.09-.02-.13-.04h-.13s-.13,0-.13,0h-.13s-.09,0-.13,0h-.08s-.04.02-.06.02c-.04,0-.09,0-.13.04l-.13.04s-.17.06-.24.1c-.04,0-.08.04-.11.06-.04.02-.08.04-.11.06-.3.17-.54.4-.79.64-.11.13-.22.25-.32.38-.09.13-.19.28-.26.42.22-.25.45-.47.71-.66.24-.19.51-.38.79-.51.04,0,.08-.04.11-.04,0,0,.04,0,.06-.02h.06s.15-.08.21-.1c.15-.04.3-.06.43-.08.3,0,.58.04.87.15l.64.26-.42-.56h0v-.04s0-.02-.02-.04c0-.02-.04-.06-.04-.09-.02-.06-.06-.13-.08-.19-.04-.13-.06-.26-.08-.41,0-.15,0-.28.02-.43s.06-.28.09-.43c.09-.28.2-.57.35-.83.15-.26.32-.53.49-.79-.24.21-.45.44-.66.7l.02.04Z"/>
            <path class="cls-4" d="M38.64,38.43c-.17.23-.32.47-.43.76-.06.13-.09.28-.13.43s-.06.3-.04.45c0,.15.02.3.06.45v.04s-.06,0-.06,0c0,0-.08-.02-.11-.02h-.11s-.11,0-.11,0h-.11s-.08,0-.11,0h-.06s-.04,0-.06.02c-.04,0-.08,0-.11.02l-.11.04s-.15.06-.21.1c-.04,0-.08.04-.09.06-.04,0-.08.04-.09.06-.26.15-.49.36-.69.57-.09.11-.19.23-.28.34-.09.11-.17.25-.22.38.21-.21.41-.42.64-.59s.45-.34.71-.46c.04,0,.06-.02.09-.04,0,0,.04,0,.06-.02h.06s.13-.06.19-.08c.13-.04.26-.06.4-.06.26,0,.53.04.77.13l.57.22-.36-.51h0v-.02s0-.02-.02-.04c0-.02-.02-.06-.04-.08-.02-.06-.04-.11-.06-.17-.04-.11-.06-.24-.06-.38v-.38c0-.11.05-.26.09-.38.07-.26.19-.51.32-.76s.28-.47.43-.72c-.21.19-.41.4-.58.62l-.11-.02Z"/>
            <path class="cls-4" d="M23.38,50.5c-.21.26-.36.55-.49.87-.06.15-.11.32-.15.49s-.06.34-.05.51.02.36.08.53v.06s-.08,0-.08,0c0,0-.09-.02-.13-.04h-.13s-.13,0-.13,0h-.13s-.09,0-.13,0h-.08s-.04.02-.08.02-.09,0-.13.04l-.13.04s-.17.06-.24.1c-.04,0-.08.04-.11.06-.04.02-.08.04-.11.06-.3.17-.56.4-.81.66-.11.13-.22.26-.32.4s-.19.28-.26.43c.22-.25.47-.47.73-.68s.53-.38.81-.51c.04,0,.08-.04.11-.06,0,0,.04,0,.06-.02h.06s.15-.08.23-.1c.15-.04.3-.06.45-.08.3,0,.6.03.89.15l.66.26-.42-.58h0v-.04s0-.02-.02-.04c0-.04-.04-.06-.04-.09-.04-.06-.06-.13-.08-.19-.04-.13-.06-.28-.08-.43,0-.15,0-.3.02-.43.02-.15.06-.3.09-.43.09-.28.2-.58.35-.85.15-.28.32-.55.49-.81-.24.21-.47.45-.66.72h-.04Z"/>
            <path class="cls-4" d="M205.99,140.71l-.7-.15c.3-1.43.55-2.89.79-4.32l.7.11c-.22,1.45-.5,2.92-.79,4.36ZM203.78,149.29l-.68-.2c.43-1.4.84-2.81,1.21-4.23l.7.19c-.37,1.43-.78,2.87-1.21,4.26l-.02-.02ZM200.75,157.63l-.66-.28c.56-1.34,1.1-2.72,1.6-4.1l.66.24c-.5,1.38-1.04,2.77-1.62,4.13h.02ZM196.92,165.64l-.62-.34c.69-1.28,1.36-2.61,2-3.93l.64.3c-.63,1.32-1.31,2.66-2.02,3.95v.02ZM192.34,173.23l-.59-.39c.8-1.21,1.61-2.46,2.36-3.72l.6.37c-.77,1.27-1.55,2.51-2.38,3.74ZM187.06,180.34l-.55-.45c.92-1.13,1.84-2.29,2.7-3.46l.57.43c-.88,1.17-1.8,2.36-2.72,3.5v-.02ZM181.12,186.92l-.51-.51c1.03-1.04,2.04-2.1,3.02-3.2l.53.47c-.99,1.1-2.01,2.18-3.04,3.22v.02ZM174.59,192.9l-.45-.54c1.13-.93,2.23-1.91,3.32-2.9l.47.53c-1.09.98-2.21,1.97-3.34,2.92ZM167.51,198.23l-.4-.58c1.2-.82,2.4-1.69,3.57-2.56l.44.56c-1.18.89-2.38,1.74-3.61,2.58ZM159.97,202.86l-.34-.62c1.28-.7,2.56-1.44,3.8-2.2l.38.6c-1.26.76-2.54,1.52-3.83,2.22ZM152.02,206.72l-.29-.66c1.34-.57,2.69-1.18,3.99-1.83l.3.64c-1.32.65-2.67,1.26-4.02,1.85h.02ZM143.71,209.81l-.21-.68c1.39-.44,2.78-.92,4.16-1.43l.25.66c-1.37.51-2.78.99-4.19,1.45ZM135.14,212.09l-.15-.7c1.43-.31,2.86-.65,4.27-1.02l.17.7c-1.41.38-2.86.73-4.31,1.04l.02-.02ZM126.41,213.52l-.08-.72c1.45-.18,2.92-.37,4.35-.6l.12.7c-1.45.23-2.92.45-4.39.62ZM117.58,214.13v-.72c1.45-.03,2.92-.09,4.39-.19l.04.72c-1.47.1-2.96.16-4.43.19ZM113.15,214.09c-1.47-.05-2.96-.12-4.43-.23l.05-.72c1.45.11,2.94.19,4.39.23v.72s-.02,0-.02,0ZM104.31,213.43c-1.45-.18-2.94-.4-4.37-.66l.13-.7c1.43.26,2.9.46,4.35.64l-.09.7-.02.02ZM95.58,211.93c-1.43-.31-2.89-.68-4.3-1.07l.19-.68c1.41.39,2.85.74,4.26,1.05l-.15.7ZM87.03,209.57c-1.4-.46-2.81-.95-4.19-1.49l.26-.66c1.36.52,2.76,1.02,4.15,1.47l-.22.68ZM78.73,206.41c-1.34-.6-2.7-1.23-4.02-1.89l.32-.64c1.3.65,2.64,1.29,3.98,1.87,0,0-.28.66-.28.66ZM70.8,202.45c-1.28-.71-2.57-1.48-3.82-2.26l.37-.6c1.25.77,2.51,1.53,3.78,2.24l-.36.62h.02ZM63.28,197.75c-1.21-.84-2.42-1.72-3.57-2.62l.43-.57c1.15.88,2.36,1.76,3.55,2.6,0,0-.41.59-.41.59ZM56.25,192.34c-1.12-.96-2.23-1.95-3.31-2.94l.49-.53c1.06.99,2.18,1.99,3.29,2.92l-.45.55h-.02ZM49.76,186.3c-1.02-1.05-2.04-2.14-3.01-3.25l.53-.47c.97,1.09,1.97,2.18,2.99,3.23l-.51.49ZM43.89,179.68c-.93-1.15-1.82-2.33-2.69-3.51l.58-.42c.85,1.18,1.76,2.35,2.67,3.49l-.56.45v-.02ZM38.68,172.52c-.82-1.22-1.59-2.5-2.33-3.76l.62-.36c.74,1.26,1.52,2.52,2.32,3.74l-.6.4v-.02ZM34.18,164.89c-.68-1.3-1.35-2.63-1.98-3.97l.64-.3c.61,1.32,1.27,2.65,1.96,3.93l-.62.32v.02ZM30.45,156.86c-.55-1.35-1.09-2.75-1.58-4.14l.68-.23c.48,1.37,1.01,2.75,1.56,4.1l-.66.27ZM27.49,148.53c-.42-1.41-.82-2.84-1.17-4.27l.7-.17c.35,1.41.75,2.84,1.17,4.23l-.68.21h-.02ZM207.56,129.76c-.05.74-.13,1.47-.22,2.21l-.7-.07c.07-.74.14-1.47.22-2.19l.36.04-4.18-.34c-3.72,44.78-41.88,80.01-86.89,80.21s-79.45-30.36-86.71-72.66l-3.78.66c.12.72.25,1.45.41,2.16l-.7.13c-.14-.72-.27-1.45-.41-2.18l.28-.06-4.07.7c3.79,22.12,15.37,42.34,32.58,56.92,8.55,7.23,18.16,12.86,28.6,16.73,10.81,4.02,22.18,6.02,33.83,5.97,24.15-.11,47.19-9.22,64.89-25.65,17.58-16.34,28.35-38.45,30.34-62.27l-3.83-.32h-.02Z"/>
          </g>
        </g>
        <g>
          <path class="cls-3" d="M15.15,147.14c-.02.65-.14,1.28-.35,1.9-.21.62-.57,1.17-1.08,1.65-.51.48-1.15.85-1.93,1.11l-.48-2.23c1.57-.61,2.14-1.91,1.72-3.89-.2-.93-.55-1.62-1.04-2.09-.5-.47-1.09-.62-1.77-.48-1.04.22-1.54,1.16-1.51,2.81l.03,2.08c.03,1.44-.19,2.59-.66,3.43-.47.84-1.24,1.38-2.31,1.61-1.33.29-2.5.01-3.52-.82s-1.7-2.07-2.05-3.71c-.38-1.75-.25-3.26.39-4.54.64-1.27,1.7-2.14,3.2-2.61l.48,2.25c-.88.34-1.5.9-1.86,1.7-.36.8-.41,1.76-.17,2.9.2.94.55,1.64,1.03,2.1.49.46,1.06.62,1.72.48,1.02-.22,1.51-1.11,1.45-2.66l-.05-2.61c-.07-2.71.98-4.3,3.14-4.76,1.3-.28,2.45-.02,3.43.77s1.65,1.99,1.99,3.59c.15.7.21,1.38.19,2.03Z"/>
          <path class="cls-3" d="M13.91,162.85c-.62,1.3-1.65,2.2-3.08,2.69-1.45.5-2.82.43-4.1-.21-1.28-.64-2.18-1.69-2.68-3.13-.5-1.45-.45-2.82.17-4.12s1.64-2.2,3.09-2.7c1.44-.5,2.8-.43,4.09.21,1.29.64,2.19,1.68,2.69,3.13.5,1.45.44,2.82-.18,4.12ZM7.58,163.37c.78.35,1.62.37,2.51.06.88-.3,1.52-.84,1.93-1.6.4-.76.46-1.58.15-2.44-.3-.87-.85-1.48-1.63-1.82-.79-.35-1.62-.37-2.5-.07-.89.31-1.54.84-1.94,1.6-.4.76-.44,1.57-.14,2.44.3.87.84,1.48,1.62,1.83Z"/>
          <path class="cls-3" d="M22.28,166.03l-13.96,6.18-.91-2.04,13.96-6.18.9,2.04Z"/>
          <path class="cls-3" d="M23.39,179.35l-8.87,4.85-1.06-1.94.87-.47c-1.17-.41-2.06-1.17-2.67-2.29-.63-1.16-.76-2.3-.38-3.42.37-1.12,1.2-2.03,2.47-2.72l4.91-2.68,1.06,1.94-4.79,2.62c-.81.44-1.32.98-1.53,1.63-.22.65-.13,1.33.26,2.05.5.92,1.42,1.49,2.76,1.73l5.93-3.24,1.06,1.94Z"/>
          <path class="cls-3" d="M20.9,193.42c-.65-.46-1.19-1.01-1.64-1.66-.72-1.05-.98-2.06-.77-3.03.21-.97.86-1.83,1.94-2.58l3.58-2.46-1.35-1.96,1.54-1.06,1.35,1.97,3.06-2.11,1.27,1.84-3.06,2.11,2.12,3.08-1.54,1.06-2.12-3.08-3.58,2.46c-1.15.79-1.34,1.73-.6,2.81.3.44.73.84,1.3,1.2l-1.5,1.42Z"/>
          <path class="cls-3" d="M32.1,191.5l-7.89,6.32-1.38-1.73,7.89-6.32,1.38,1.73ZM32.9,188.13c.03-.37.2-.69.52-.94.31-.25.66-.35,1.03-.3.37.05.68.23.93.55.24.3.35.64.31,1.03-.03.38-.2.7-.5.94-.3.24-.64.34-1.03.28-.38-.05-.69-.23-.94-.53-.25-.31-.36-.66-.33-1.03Z"/>
          <path class="cls-3" d="M39.17,201.17c-.02,1.44-.59,2.68-1.68,3.73-1.11,1.06-2.38,1.56-3.82,1.51-1.43-.05-2.68-.63-3.74-1.74-1.06-1.11-1.58-2.38-1.56-3.82.02-1.43.58-2.68,1.69-3.74,1.1-1.05,2.37-1.55,3.81-1.51,1.44.04,2.69.62,3.75,1.73,1.06,1.11,1.57,2.38,1.55,3.82ZM33.63,204.27c.86,0,1.63-.33,2.31-.99.67-.64,1.04-1.39,1.09-2.26.05-.86-.24-1.62-.87-2.29-.63-.66-1.38-.99-2.24-.98-.86.01-1.63.34-2.3.98-.69.65-1.05,1.41-1.1,2.26-.05.86.25,1.61.88,2.28s1.38.99,2.23.99Z"/>
          <path class="cls-3" d="M48.85,209.28c.08,1.17-.35,2.32-1.27,3.43l-3.6,4.33-1.72-1.43,3.52-4.24c.59-.71.86-1.39.82-2.06-.04-.67-.38-1.27-1.02-1.8-.82-.68-1.86-.89-3.14-.62l-4.35,5.24-1.72-1.43,6.45-7.77,1.72,1.43-.58.69c1.19-.02,2.27.38,3.26,1.19,1.01.84,1.56,1.85,1.64,3.02Z"/>
          <path class="cls-3" d="M51.3,220.16c.56.37,1.07.58,1.52.62.45.04.79-.1,1-.42.35-.53.19-1.1-.48-1.73l-1.65-1.56c-1.48-1.37-1.79-2.72-.92-4.03.54-.81,1.28-1.24,2.23-1.3.95-.05,1.96.28,3.02.98.97.64,1.67,1.4,2.1,2.29.43.89.35,1.86-.23,2.92l-1.72-1.14c.48-.9.1-1.76-1.13-2.58-.53-.35-1-.53-1.41-.54-.41-.01-.72.13-.91.43-.36.55-.16,1.18.62,1.91l1.41,1.29c1.48,1.43,1.79,2.79.93,4.09-.57.86-1.34,1.3-2.33,1.32-.98.02-2.03-.33-3.13-1.06-.7-.47-1.27-.97-1.68-1.51-.42-.54-.66-1.17-.73-1.88-.07-.72.1-1.45.49-2.2l1.71,1.16c-.46,1.11-.03,2.09,1.27,2.95Z"/>
          <path class="cls-3" d="M78.11,218.84l-6.24,13.93-2.02-.91.33-.75c-1.1.29-2.24.18-3.4-.34-1.3-.58-2.19-1.55-2.67-2.9-.49-1.36-.43-2.71.18-4.06.6-1.34,1.56-2.27,2.89-2.8,1.33-.54,2.64-.51,3.94.07,1.15.52,2,1.28,2.53,2.29l2.43-5.44,2.02.91ZM71.17,228.9l1.49-3.32c-.23-1.17-.92-2.01-2.07-2.53-.84-.37-1.66-.4-2.48-.06-.82.33-1.41.91-1.78,1.74-.37.84-.42,1.67-.12,2.51.29.84.86,1.44,1.69,1.82,1.17.52,2.26.47,3.28-.16Z"/>
          <path class="cls-3" d="M80,222.01c-.47-.39-.61-.85-.43-1.36.12-.35.36-.6.7-.76.34-.15.69-.17,1.04-.04.37.13.63.36.8.69.17.33.19.68.07,1.03-.1.27-.38.63-.85,1.07l-1.87,1.8-1.28-.45,1.81-1.98Z"/>
          <path class="cls-3" d="M88.72,233.52l-.03-.03v.02s-7.59-2.19-7.59-2.19c-.11.8.01,1.52.37,2.13.36.62.97,1.05,1.84,1.3.99.29,1.77.18,2.33-.31l2.36.68c-.55.78-1.3,1.3-2.24,1.57-.94.27-1.94.25-3.01-.06-1.52-.44-2.61-1.28-3.28-2.52-.67-1.25-.79-2.6-.37-4.06.42-1.45,1.24-2.52,2.46-3.23s2.56-.85,4.02-.43c1.42.41,2.46,1.19,3.11,2.35.65,1.16.77,2.46.35,3.91-.11.37-.21.66-.3.88ZM82.98,228.36c-.61.32-1.08.82-1.43,1.49l5.48,1.58c.14-.81.04-1.49-.31-2.05-.35-.56-.91-.95-1.68-1.17-.77-.22-1.46-.18-2.07.14ZM86.95,225.2l-1.96-.57,2.47-2.58,2.38.69-2.88,2.46Z"/>
          <path class="cls-3" d="M97.86,237.34c.52-.27.9-.67,1.14-1.22l2.25.38c-.38,1.11-1.07,1.96-2.09,2.53-1.02.57-2.16.75-3.41.54-1.5-.25-2.67-.96-3.5-2.14-.84-1.17-1.13-2.5-.88-3.99.25-1.48.96-2.64,2.14-3.48,1.18-.83,2.51-1.13,4-.88,1.26.21,2.28.75,3.05,1.62.78.87,1.16,1.9,1.15,3.07l-2.25-.38c-.05-.59-.27-1.1-.68-1.52-.41-.42-.95-.69-1.61-.8-.9-.15-1.69.04-2.36.56-.67.53-1.08,1.25-1.24,2.17-.15.92,0,1.74.46,2.45.46.72,1.14,1.15,2.05,1.3.67.11,1.26.03,1.78-.23Z"/>
          <path class="cls-3" d="M113.37,232.1c.97,1.06,1.42,2.35,1.35,3.87-.08,1.53-.65,2.77-1.73,3.73-1.07.95-2.38,1.39-3.91,1.31-1.53-.08-2.78-.64-3.76-1.69-.97-1.05-1.42-2.35-1.35-3.88.08-1.52.65-2.76,1.72-3.71,1.07-.96,2.38-1.4,3.91-1.32,1.53.08,2.78.64,3.76,1.71ZM111.48,238.17c.62-.59.95-1.36,1-2.31.05-.93-.21-1.73-.76-2.38-.55-.66-1.29-1.01-2.21-1.06-.92-.04-1.69.23-2.3.83-.62.6-.95,1.37-1,2.3-.05.95.21,1.74.76,2.4.56.65,1.29,1,2.21,1.05s1.68-.23,2.3-.82Z"/>
          <path class="cls-3" d="M125.97,231.32c.86.8,1.34,1.92,1.44,3.36l.37,5.62-2.23.15-.36-5.49c-.06-.92-.34-1.6-.83-2.06-.49-.46-1.15-.66-1.98-.6-1.06.07-1.96.64-2.71,1.71l.45,6.8-2.23.15-.67-10.09,2.23-.15.06.9c.85-.83,1.91-1.29,3.19-1.37,1.32-.09,2.41.27,3.27,1.07Z"/>
          <path class="cls-3" d="M138.53,229.52c1.19.81,1.93,1.96,2.2,3.45.28,1.51,0,2.85-.82,4.02-.83,1.17-1.99,1.9-3.5,2.18-1.51.28-2.86.02-4.05-.78-1.19-.8-1.93-1.95-2.21-3.46-.28-1.49,0-2.83.82-4.01.82-1.18,1.99-1.91,3.5-2.19,1.51-.28,2.86-.02,4.05.79ZM138.09,235.86c.46-.72.61-1.55.44-2.48-.17-.92-.6-1.63-1.29-2.15s-1.49-.69-2.39-.52c-.9.17-1.59.61-2.05,1.34s-.61,1.55-.44,2.47c.17.93.6,1.65,1.3,2.16.69.51,1.49.68,2.39.51.9-.17,1.59-.61,2.05-1.33Z"/>
          <path class="cls-3" d="M156.96,223.62c1.05.55,1.81,1.5,2.27,2.86l1.83,5.33-2.1.72-1.78-5.21c-.3-.87-.73-1.46-1.31-1.78-.58-.32-1.25-.34-2.03-.08-.98.33-1.62,1.08-1.94,2.23.21.34.38.71.52,1.12l1.83,5.33-2.1.72-1.78-5.21c-.3-.87-.74-1.46-1.31-1.78-.58-.32-1.25-.34-2.03-.08-.89.31-1.51,1.02-1.83,2.15l2.24,6.53-2.12.72-3.27-9.56,2.12-.72.26.77c.47-.92,1.27-1.57,2.38-1.95,1.34-.46,2.56-.33,3.66.4.33-.69.73-1.25,1.22-1.68.49-.43,1.13-.79,1.93-1.06,1.18-.4,2.3-.33,3.35.22Z"/>
          <path class="cls-3" d="M159.34,218.2c-.36-.12-.62-.35-.8-.72-.17-.36-.19-.72-.06-1.07.13-.35.38-.61.74-.79.35-.17.71-.19,1.07-.07.37.12.63.35.8.7.17.35.18.7.04,1.06-.14.36-.38.62-.73.79-.36.17-.72.2-1.08.09ZM162.44,219.75l4.37,9.12-2,.96-4.36-9.12,2-.96Z"/>
          <path class="cls-3" d="M176.58,218.42h-.05s.01.02.01.02l-6.81,3.98c.5.64,1.1,1.04,1.8,1.2s1.43.02,2.21-.43c.89-.52,1.35-1.16,1.38-1.9l2.12-1.24c.18.94.05,1.84-.41,2.71s-1.16,1.58-2.11,2.13c-1.36.8-2.72,1.01-4.09.64-1.36-.37-2.43-1.21-3.2-2.53-.76-1.3-.98-2.64-.65-4.01.33-1.37,1.15-2.44,2.46-3.21,1.27-.75,2.56-.96,3.84-.63,1.29.32,2.31,1.14,3.07,2.44.2.33.34.61.43.82ZM168.89,219.01c-.19.66-.15,1.34.1,2.06l4.92-2.88c-.49-.66-1.05-1.06-1.69-1.19-.64-.13-1.31,0-2,.41-.69.41-1.13.94-1.32,1.6Z"/>
          <path class="cls-3" d="M184.76,198.28l9.86,11.66-1.69,1.43-.53-.62c-.22,1.12-.81,2.09-1.79,2.92-1.08.92-2.34,1.3-3.78,1.15-1.43-.15-2.63-.79-3.58-1.92-.94-1.12-1.37-2.39-1.28-3.82s.68-2.61,1.77-3.52c.96-.82,2.02-1.25,3.16-1.29l-3.85-4.55,1.69-1.43ZM190.83,208.89l-2.35-2.78c-1.16-.3-2.21-.04-3.18.77-.7.59-1.08,1.33-1.13,2.21-.05.88.21,1.67.79,2.36.59.7,1.33,1.1,2.21,1.2s1.67-.15,2.37-.74c.98-.82,1.4-1.83,1.28-3.02Z"/>
          <path class="cls-3" d="M188.44,197.94c-.56.25-1.03.19-1.41-.2-.26-.27-.39-.58-.38-.96.01-.37.15-.69.41-.96.27-.27.6-.42.97-.43.38,0,.69.12.96.38.2.2.4.61.59,1.23l.82,2.46-.96.96-1-2.5Z"/>
          <path class="cls-3" d="M194.32,193.07l-1.36,1.53-1.26-3.34,1.65-1.85.97,3.66ZM202.58,195.08l-.05.02h.02s-5.25,5.91-5.25,5.91c.68.45,1.37.65,2.08.59.71-.06,1.37-.42,1.97-1.1.69-.77.93-1.51.72-2.23l1.63-1.83c.46.84.61,1.74.44,2.7-.17.96-.62,1.86-1.35,2.68-1.05,1.18-2.28,1.8-3.69,1.86-1.41.07-2.69-.41-3.82-1.42-1.12-1-1.74-2.21-1.85-3.61-.11-1.41.34-2.67,1.35-3.81.98-1.1,2.14-1.7,3.46-1.78,1.33-.09,2.55.37,3.67,1.37.29.26.51.47.66.65ZM195.45,198.01c.03.68.27,1.33.73,1.93l3.79-4.25c-.67-.48-1.33-.68-1.98-.61-.65.07-1.24.41-1.78,1.01-.53.6-.79,1.24-.77,1.92Z"/>
          <path class="cls-3" d="M205.59,182.94c1.16-.17,2.34.16,3.52,1l4.61,3.25-1.29,1.83-4.5-3.17c-.75-.53-1.46-.75-2.12-.65-.66.09-1.23.48-1.71,1.16-.61.87-.74,1.93-.38,3.18l5.57,3.93-1.29,1.83-8.26-5.83,1.29-1.83.74.52c-.11-1.18.2-2.3.94-3.34.76-1.08,1.72-1.7,2.89-1.87Z"/>
          <path class="cls-3" d="M216.49,173.38l-.04.03h.02s-3.79,6.93-3.79,6.93c.76.28,1.48.32,2.16.11.68-.22,1.24-.72,1.67-1.51.5-.91.56-1.69.2-2.34l1.18-2.15c.64.71.99,1.55,1.04,2.53.05.98-.18,1.95-.72,2.92-.76,1.38-1.82,2.26-3.18,2.65-1.36.38-2.71.21-4.04-.52-1.32-.72-2.19-1.76-2.61-3.1-.42-1.34-.27-2.68.46-4.01.71-1.3,1.7-2.13,2.97-2.51,1.27-.38,2.57-.21,3.89.51.34.19.6.35.79.48ZM210.2,177.84c.18.66.56,1.23,1.14,1.72l2.74-5c-.76-.32-1.45-.37-2.06-.15-.62.22-1.12.68-1.51,1.38-.39.7-.49,1.39-.31,2.05Z"/>
          <path class="cls-3" d="M214.58,162.92l1.93.84c-.59,1.5-.52,2.89.21,4.17l5.84,2.54-.89,2.05-9.27-4.02.89-2.05,1.26.55c-.58-1.32-.57-2.67.03-4.07Z"/>
          <path class="cls-3" d="M218.57,151.86l9.88,3.21c1.45.47,2.44,1.29,2.99,2.45s.59,2.48.11,3.94c-.44,1.35-1.17,2.36-2.18,3.03-1.02.67-2.12.89-3.31.65l.7-2.17c.63.1,1.2-.04,1.72-.41.51-.38.9-.95,1.15-1.73.27-.83.24-1.58-.09-2.24-.33-.66-.92-1.13-1.78-1.41l-1.51-.49c.39,1.07.38,2.23-.02,3.45-.43,1.34-1.27,2.32-2.51,2.96-1.24.64-2.51.74-3.8.32-1.42-.46-2.43-1.3-3.04-2.53-.61-1.22-.7-2.52-.25-3.88.4-1.23,1.07-2.16,2.02-2.8l-.76-.25.69-2.11ZM223.93,155.94l-2.99-.97c-1.21.34-2.02,1.12-2.41,2.34-.29.89-.24,1.7.15,2.45.39.74,1.03,1.26,1.92,1.55.76.25,1.53.18,2.3-.2.77-.38,1.3-1,1.58-1.86.4-1.23.21-2.33-.55-3.3Z"/>
          <path class="cls-3" d="M216.64,147.92c-.31.21-.66.27-1.06.18-.39-.09-.68-.3-.87-.62-.19-.32-.24-.68-.15-1.07.09-.38.29-.67.61-.89.32-.21.67-.28,1.05-.19s.66.3.86.63c.2.33.25.69.16,1.06-.09.39-.29.69-.6.9ZM219.77,146.46l9.85,2.26-.49,2.16-9.85-2.26.49-2.16Z"/>
          <path class="cls-3" d="M227.53,134.55l-.03.04h.02s-1.11,7.82-1.11,7.82c.81,0,1.5-.22,2.06-.66.56-.44.91-1.11,1.04-2,.14-1.02-.07-1.78-.63-2.26l.34-2.43c.85.44,1.47,1.11,1.87,2,.39.9.51,1.89.36,2.98-.22,1.56-.9,2.76-2.04,3.6-1.14.84-2.46,1.15-3.97.94-1.49-.21-2.67-.87-3.54-1.98-.87-1.11-1.2-2.41-.98-3.92.21-1.46.84-2.6,1.9-3.4,1.06-.81,2.33-1.1,3.82-.89.38.05.69.11.91.17ZM223.21,140.94c.4.56.96.96,1.67,1.21l.8-5.64c-.82-.03-1.48.17-1.98.59-.5.42-.81,1.03-.92,1.83-.11.79.03,1.47.43,2.03Z"/>
        </g>
      </g>
    </g>
  </g>
</svg>